<svg width="63" height="54" viewBox="0 0 63 54" fill="none" xmlns="http://www.w3.org/2000/svg">
<path d="M5.34619 44.968C3.95097 46.0113 2.85001 47.4002 2.15116 48.9984" stroke="url(#paint0_linear_122_3128)" stroke-width="0.75" stroke-linecap="round" stroke-linejoin="round"/>
<path d="M36.3535 53.4666H36.2927C18.2049 53.8498 9.62228 52.7699 6.31606 52.1777C5.29732 52.0164 4.25965 52.0164 3.24092 52.1777L3.51194 51.2703H2.75792L2.8778 50.3837H1.99348L2.26451 49.377L1.09873 49.1349L2.24366 48.1281" stroke="url(#paint1_linear_122_3128)" stroke-width="0.75" stroke-linecap="round" stroke-linejoin="round"/>
<path d="M35.9865 53.4807L61.9046 52.946C61.9046 52.946 62.3164 49.661 59.2013 49.5809C56.0861 49.5008 52.3178 50.5876 52.4776 45.0767" stroke="url(#paint2_linear_122_3128)" stroke-width="0.75" stroke-linecap="round" stroke-linejoin="round"/>
<path d="M48.7815 44.8102C48.883 45.3349 48.8671 45.8757 48.735 46.3936C48.6029 46.9115 48.3579 47.3936 48.0175 47.8051C47.6772 48.2165 47.2501 48.5472 46.7669 48.7733C46.2837 48.9993 45.7565 49.1151 45.2233 49.1123C41.0119 49.384 26.2512 49.1123 26.2512 49.1123C25.3408 49.0473 24.4875 48.6433 23.859 47.9797C23.2305 47.3161 22.8723 46.4409 22.8547 45.526" stroke="url(#paint3_linear_122_3128)" stroke-width="0.75" stroke-linecap="round" stroke-linejoin="round"/>
<path d="M9.60088 45.8677C8.71656 46.5122 6.39543 48.4159 8.59668 49.2433C11.1499 49.8648 13.7887 50.0555 16.4044 49.8076C16.4044 49.8076 18.8767 49.1318 19.0105 46.9058" stroke="url(#paint4_linear_122_3128)" stroke-width="0.75" stroke-linecap="round" stroke-linejoin="round"/>
<path d="M55.8296 34.5559C50.38 35.4167 45.0269 36.8068 39.8458 38.7066C38.2983 39.2639 36.6704 39.8782 34.962 40.5493C15.9586 48.1556 2.54261 40.8019 2.54261 40.8019" stroke="url(#paint5_linear_122_3128)" stroke-width="0.75" stroke-linecap="round" stroke-linejoin="round"/>
<path d="M3.82713 43.7766C3.27476 43.5392 2.73489 43.2735 2.20964 42.9806C2.05518 42.8937 1.92642 42.7673 1.83641 42.6144C1.74639 42.4614 1.69834 42.2873 1.69712 42.1098V40.9515C1.69712 40.9515 -1.69945 33.8991 6.50095 32.8924C7.05802 32.8277 7.61128 32.7335 8.1584 32.6102C10.386 32.0964 12.5388 31.2986 14.5641 30.2362C18.1279 28.4774 21.2914 26.0003 23.8566 22.9599C26.4218 19.9194 28.3337 16.381 29.4725 12.566C29.7699 11.5408 30.0021 10.4977 30.1675 9.44301C30.3682 8.1096 30.4386 6.75971 30.3777 5.41257C30.3082 3.75093 30.7252 0.255205 35.6228 1.14176C36.3959 1.28284 37.1708 1.43439 37.9144 1.58592C43.2916 2.65362 47.7618 3.90246 49.9735 5.3429C50.5602 5.87647 51.0089 6.54479 51.2813 7.29047C51.5536 8.03616 51.6414 8.83696 51.5371 9.62415C51.4782 12.7805 51.8156 15.9317 52.5413 19.0035L52.6525 19.4564C53.1663 21.663 53.9647 23.7931 55.0275 25.7929C57.3886 29.8234 55.0275 34.6986 55.0275 34.6986L54.9268 44.2486L51.1984 44.7712L47.5499 45.2937L44.6867 45.696C43.3773 44.1504 42.4478 42.3183 41.9729 40.3471C35.5342 43.3103 28.6641 45.222 21.6231 46.0096C20.1758 46.1506 18.8189 46.2116 17.5333 46.2308C14.3648 46.2896 11.2015 45.9514 8.11671 45.224C6.64895 44.8594 5.21365 44.3741 3.8254 43.7731" stroke="url(#paint6_linear_122_3128)" stroke-width="0.75" stroke-linecap="round" stroke-linejoin="round"/>
<path d="M52.8862 18.46C52.8862 18.46 37.6512 22.3789 39.2704 37.8528" stroke="url(#paint7_linear_122_3128)" stroke-width="0.75" stroke-linecap="round" stroke-linejoin="round"/>
<path d="M37.74 1.89638C37.74 1.89638 35.6795 38.7399 7.97356 32.9363" stroke="url(#paint8_linear_122_3128)" stroke-width="0.75" stroke-linecap="round" stroke-linejoin="round"/>
<path d="M31.6917 4.25082C31.6917 4.99056 32.2899 5.59024 33.0277 5.59024C33.7656 5.59024 34.3638 4.99056 34.3638 4.25082C34.3638 3.51108 33.7656 2.91141 33.0277 2.91141C32.2899 2.91141 31.6917 3.51108 31.6917 4.25082Z" stroke="url(#paint9_linear_122_3128)" stroke-width="0.75" stroke-linecap="round" stroke-linejoin="round"/>
<path d="M31.2366 9.54498C31.2366 10.2847 31.8348 10.8844 32.5727 10.8844C33.3105 10.8844 33.9087 10.2847 33.9087 9.54498C33.9087 8.80524 33.3105 8.20557 32.5727 8.20557C31.8348 8.20557 31.2366 8.80524 31.2366 9.54498Z" stroke="url(#paint10_linear_122_3128)" stroke-width="0.75" stroke-linecap="round" stroke-linejoin="round"/>
<path d="M30.0755 14.986C30.0755 15.7258 30.6736 16.3254 31.4115 16.3254C32.1494 16.3254 32.7476 15.7258 32.7476 14.986C32.7476 14.2463 32.1494 13.6466 31.4115 13.6466C30.6736 13.6466 30.0755 14.2463 30.0755 14.986Z" stroke="url(#paint11_linear_122_3128)" stroke-width="0.75" stroke-linecap="round" stroke-linejoin="round"/>
<path d="M27.9996 20.4875C27.9996 21.2272 28.5977 21.8269 29.3356 21.8269C30.0735 21.8269 30.6716 21.2272 30.6716 20.4875C30.6716 19.7477 30.0735 19.1481 29.3356 19.1481C28.5977 19.1481 27.9996 19.7477 27.9996 20.4875Z" stroke="url(#paint12_linear_122_3128)" stroke-width="0.75" stroke-linecap="round" stroke-linejoin="round"/>
<path d="M24.8194 25.2247C24.8194 25.9645 25.4175 26.5642 26.1554 26.5642C26.8933 26.5642 27.4915 25.9645 27.4915 25.2247C27.4915 24.485 26.8933 23.8853 26.1554 23.8853C25.4175 23.8853 24.8194 24.485 24.8194 25.2247Z" stroke="url(#paint13_linear_122_3128)" stroke-width="0.75" stroke-linecap="round" stroke-linejoin="round"/>
<path d="M20.5516 29.2475C20.5516 29.9872 21.1497 30.5869 21.8876 30.5869C22.6255 30.5869 23.2236 29.9872 23.2236 29.2475C23.2236 28.5077 22.6255 27.9081 21.8876 27.9081C21.1497 27.9081 20.5516 28.5077 20.5516 29.2475Z" stroke="url(#paint14_linear_122_3128)" stroke-width="0.75" stroke-linecap="round" stroke-linejoin="round"/>
<defs>
<linearGradient id="paint0_linear_122_3128" x1="1.07457" y1="45.487" x2="5.89058" y2="49.307" gradientUnits="userSpaceOnUse">
<stop offset="0.169792" stop-color="#F336A6" stop-opacity="0.9"/>
<stop offset="0.773958" stop-color="#8F7FF1"/>
</linearGradient>
<linearGradient id="paint1_linear_122_3128" x1="-10.7806" y1="48.826" x2="-8.78469" y2="61.8187" gradientUnits="userSpaceOnUse">
<stop offset="0.169792" stop-color="#F336A6" stop-opacity="0.9"/>
<stop offset="0.773958" stop-color="#8F7FF1"/>
</linearGradient>
<linearGradient id="paint2_linear_122_3128" x1="27.2471" y1="46.159" x2="33.2926" y2="64.8269" gradientUnits="userSpaceOnUse">
<stop offset="0.169792" stop-color="#F336A6" stop-opacity="0.9"/>
<stop offset="0.773958" stop-color="#8F7FF1"/>
</linearGradient>
<linearGradient id="paint3_linear_122_3128" x1="14.0962" y1="45.3798" x2="15.8904" y2="55.9296" gradientUnits="userSpaceOnUse">
<stop offset="0.169792" stop-color="#F336A6" stop-opacity="0.9"/>
<stop offset="0.773958" stop-color="#8F7FF1"/>
</linearGradient>
<linearGradient id="paint4_linear_122_3128" x1="3.85615" y1="46.3887" x2="6.99748" y2="55.1961" gradientUnits="userSpaceOnUse">
<stop offset="0.169792" stop-color="#F336A6" stop-opacity="0.9"/>
<stop offset="0.773958" stop-color="#8F7FF1"/>
</linearGradient>
<linearGradient id="paint5_linear_122_3128" x1="-15.4128" y1="35.7718" x2="-11.4349" y2="58.2374" gradientUnits="userSpaceOnUse">
<stop offset="0.169792" stop-color="#F336A6" stop-opacity="0.9"/>
<stop offset="0.773958" stop-color="#8F7FF1"/>
</linearGradient>
<linearGradient id="paint6_linear_122_3128" x1="-17.5587" y1="6.82602" x2="36.8893" y2="73.155" gradientUnits="userSpaceOnUse">
<stop offset="0.169792" stop-color="#F336A6" stop-opacity="0.9"/>
<stop offset="0.773958" stop-color="#8F7FF1"/>
</linearGradient>
<linearGradient id="paint7_linear_122_3128" x1="34.5214" y1="20.9575" x2="56.9749" y2="36.8709" gradientUnits="userSpaceOnUse">
<stop offset="0.169792" stop-color="#F336A6" stop-opacity="0.9"/>
<stop offset="0.773958" stop-color="#8F7FF1"/>
</linearGradient>
<linearGradient id="paint8_linear_122_3128" x1="-2.05643" y1="5.97381" x2="36.7221" y2="42.4539" gradientUnits="userSpaceOnUse">
<stop offset="0.169792" stop-color="#F336A6" stop-opacity="0.9"/>
<stop offset="0.773958" stop-color="#8F7FF1"/>
</linearGradient>
<linearGradient id="paint9_linear_122_3128" x1="30.7913" y1="3.25641" x2="34.0786" y2="6.53727" gradientUnits="userSpaceOnUse">
<stop offset="0.169792" stop-color="#F336A6" stop-opacity="0.9"/>
<stop offset="0.773958" stop-color="#8F7FF1"/>
</linearGradient>
<linearGradient id="paint10_linear_122_3128" x1="30.3362" y1="8.55057" x2="33.6235" y2="11.8314" gradientUnits="userSpaceOnUse">
<stop offset="0.169792" stop-color="#F336A6" stop-opacity="0.9"/>
<stop offset="0.773958" stop-color="#8F7FF1"/>
</linearGradient>
<linearGradient id="paint11_linear_122_3128" x1="29.1751" y1="13.9916" x2="32.4624" y2="17.2725" gradientUnits="userSpaceOnUse">
<stop offset="0.169792" stop-color="#F336A6" stop-opacity="0.9"/>
<stop offset="0.773958" stop-color="#8F7FF1"/>
</linearGradient>
<linearGradient id="paint12_linear_122_3128" x1="27.0992" y1="19.4931" x2="30.3864" y2="22.7739" gradientUnits="userSpaceOnUse">
<stop offset="0.169792" stop-color="#F336A6" stop-opacity="0.9"/>
<stop offset="0.773958" stop-color="#8F7FF1"/>
</linearGradient>
<linearGradient id="paint13_linear_122_3128" x1="23.919" y1="24.2303" x2="27.2063" y2="27.5112" gradientUnits="userSpaceOnUse">
<stop offset="0.169792" stop-color="#F336A6" stop-opacity="0.9"/>
<stop offset="0.773958" stop-color="#8F7FF1"/>
</linearGradient>
<linearGradient id="paint14_linear_122_3128" x1="19.6512" y1="28.2531" x2="22.9384" y2="31.5339" gradientUnits="userSpaceOnUse">
<stop offset="0.169792" stop-color="#F336A6" stop-opacity="0.9"/>
<stop offset="0.773958" stop-color="#8F7FF1"/>
</linearGradient>
</defs>
</svg>
