<svg width="51" height="50" viewBox="0 0 51 50" fill="none" xmlns="http://www.w3.org/2000/svg">
<path d="M25.0195 12.1806C17.9213 12.1806 12.1959 17.9042 12.1959 25C12.1959 32.0958 17.9213 37.8194 25.0195 37.8194C32.1177 37.8194 37.8432 32.0958 37.8432 25C37.8432 17.9042 32.1177 12.1806 25.0195 12.1806ZM25.0195 33.3343C20.4325 33.3343 16.6825 29.5967 16.6825 25C16.6825 20.4033 20.4213 16.6657 25.0195 16.6657C29.6177 16.6657 33.3566 20.4033 33.3566 25C33.3566 29.5967 29.6066 33.3343 25.0195 33.3343ZM41.3588 11.6563C41.3588 13.3186 40.0195 14.6463 38.3677 14.6463C36.7048 14.6463 35.3767 13.3075 35.3767 11.6563C35.3767 10.005 36.716 8.66618 38.3677 8.66618C40.0195 8.66618 41.3588 10.005 41.3588 11.6563ZM49.8521 14.691C49.6624 10.6856 48.7472 7.13768 45.8119 4.21455C42.8878 1.29142 39.3387 0.376548 35.332 0.175722C31.2026 -0.0585741 18.8253 -0.0585741 14.6959 0.175722C10.7003 0.365391 7.15123 1.28026 4.21596 4.20339C1.28069 7.12652 0.376674 10.6744 0.175781 14.6798C-0.0585937 18.8079 -0.0585937 31.181 0.175781 35.309C0.365513 39.3144 1.28069 42.8623 4.21596 45.7855C7.15123 48.7086 10.6892 49.6235 14.6959 49.8243C18.8253 50.0586 31.2026 50.0586 35.332 49.8243C39.3387 49.6346 42.8878 48.7197 45.8119 45.7855C48.736 42.8623 49.6512 39.3144 49.8521 35.309C50.0865 31.181 50.0865 18.819 49.8521 14.691ZM44.5173 39.7384C43.6468 41.9251 41.9615 43.6098 39.7628 44.4912C36.4704 45.7966 28.6579 45.4954 25.0195 45.4954C21.3811 45.4954 13.5575 45.7855 10.2762 44.4912C8.08873 43.621 6.40346 41.9363 5.52176 39.7384C4.21596 36.4471 4.5173 28.6372 4.5173 25C4.5173 21.3628 4.22712 13.5418 5.52176 10.2616C6.3923 8.07486 8.07757 6.39016 10.2762 5.50876C13.5686 4.20339 21.3811 4.50463 25.0195 4.50463C28.6579 4.50463 36.4816 4.21455 39.7628 5.50876C41.9503 6.379 43.6356 8.06371 44.5173 10.2616C45.8231 13.5529 45.5218 21.3628 45.5218 25C45.5218 28.6372 45.8231 36.4582 44.5173 39.7384Z" fill="url(#paint0_linear_71_1350)"/>
<defs>
<linearGradient id="paint0_linear_71_1350" x1="6.44299" y1="66.8478" x2="67.8346" y2="5.4571" gradientUnits="userSpaceOnUse">
<stop offset="0.169792" stop-color="#F336A6" stop-opacity="0.9"/>
<stop offset="0.773958" stop-color="#8F7FF1"/>
</linearGradient>
</defs>
</svg>
