<svg width="248" height="101" viewBox="0 0 248 101" fill="none" xmlns="http://www.w3.org/2000/svg">
<path d="M112.831 38.8087H108.976V26.5217H112.831V38.8087Z" fill="white"/>
<path d="M114.499 29.9355H118.152V31.4523C118.73 30.8759 119.421 30.4257 120.182 30.1301C120.944 29.8346 121.758 29.7002 122.574 29.7355H122.69C125.804 29.7355 127.012 31.4883 127.012 33.2063V38.8175H123.288V34.4038C123.288 33.0374 122.568 32.1902 120.903 32.1902C120.561 32.1469 120.214 32.1769 119.884 32.2782C119.554 32.3795 119.25 32.5497 118.992 32.7776C118.734 33.0054 118.527 33.2856 118.386 33.5995C118.245 33.9133 118.172 34.2536 118.173 34.5976V38.7939H114.478L114.499 29.9355Z" fill="white"/>
<path d="M131.641 38.8074C130.034 38.8074 129.437 37.8136 129.437 36.2782V32.3664H127.706V29.944H129.442V27.3291H133.087V29.944H134.838V32.3875H133.087V35.6061C133.087 36.0881 133.188 36.3825 133.807 36.3825H134.815V38.826L131.641 38.8074Z" fill="white"/>
<path d="M148.869 35.6833C148.869 36.8907 148.077 39.0535 142.767 39.0535H141.817C137.062 39.0535 135.543 36.8398 135.543 34.5119V34.1454C135.543 31.8671 136.896 29.6733 141.716 29.6733H142.725C147.955 29.6733 148.919 32.3032 148.919 34.4659V35.0771H139.173C139.39 36.1193 140.283 36.8087 142.321 36.8087C144.771 36.8087 145.167 35.882 145.203 35.6659H148.848L148.869 35.6833ZM142.194 31.7441C140.336 31.7441 139.514 32.3044 139.227 33.246H145.191C144.942 32.3044 144.081 31.7441 142.208 31.7441H142.194Z" fill="white"/>
<path d="M153.667 38.795H149.968V29.9354H153.627V31.5019C154.028 30.9274 154.569 30.4639 155.199 30.1547C155.829 29.8456 156.527 29.7009 157.229 29.7342H157.409C159.996 29.7342 161.011 31.4013 161.011 33.7006V34.2112H157.453C157.453 33.0683 156.955 32.0559 155.566 32.0559C155.294 32.0603 155.027 32.121 154.78 32.2341C154.533 32.3473 154.313 32.5103 154.132 32.713C153.952 32.9157 153.816 33.1535 153.733 33.4115C153.65 33.6694 153.621 33.9417 153.649 34.2112L153.667 38.795Z" fill="white"/>
<path d="M162.063 29.9354H165.722V31.4521C166.298 30.8763 166.989 30.4263 167.749 30.1307C168.509 29.8352 169.323 29.7005 170.138 29.7354H170.262C173.376 29.7354 174.584 31.4881 174.584 33.2062V38.8173H170.86V34.4049C170.86 33.0385 170.14 32.1913 168.475 32.1913C168.133 32.1475 167.784 32.1771 167.454 32.278C167.124 32.379 166.819 32.5491 166.559 32.7769C166.3 33.0047 166.093 33.285 165.951 33.5992C165.808 33.9133 165.735 34.2541 165.735 34.5987V38.795H162.048L162.063 29.9354Z" fill="white"/>
<path d="M179.882 38.9603H179.665C176.669 38.9603 175.53 37.574 175.53 36.0858V35.9703C175.53 34.3318 176.604 33.5566 179.266 33.3119L183.336 32.9305C183.753 32.8808 183.898 32.7442 183.898 32.4634C183.898 32.1827 183.753 31.7454 181.585 31.7454H181.499C179.339 31.7454 179.215 32.4634 179.166 32.7392H175.744C175.744 31.5603 176.091 29.728 181.054 29.728H181.969C187.133 29.728 187.465 31.3156 187.465 32.6026V36.0088C187.465 36.2672 187.544 36.4547 187.925 36.4547H188.409V38.8622H185.412C185.059 38.89 184.709 38.7772 184.439 38.5483C184.169 38.3195 184.001 37.9933 183.971 37.6411C183.62 38.0547 182.496 38.9603 179.882 38.9603ZM183.902 34.5703L180.38 35.1168C179.436 35.2609 179.04 35.4262 179.04 35.9429C179.04 36.4175 179.4 36.9491 180.659 36.9491C182.633 36.9491 183.897 35.8932 183.897 34.8373L183.902 34.5703Z" fill="white"/>
<path d="M192.304 38.8074C190.698 38.8074 190.1 37.8136 190.1 36.2782V32.3664H188.364V29.944H190.1V27.3291H193.702V29.944H195.463V32.3875H193.705V35.6061C193.705 36.0881 193.806 36.3825 194.425 36.3825H195.434V38.826L192.304 38.8074Z" fill="white"/>
<path d="M200.413 29.0658H196.725V26.5217H200.413V29.0658ZM200.413 38.8087H196.725V29.9491H200.413V38.8087Z" fill="white"/>
<path d="M207.712 39.046C202.547 39.046 201.308 36.5019 201.308 34.4498V34.1479C201.308 32.1007 202.533 29.6572 207.697 29.6572H208.872C214.303 29.6572 215.239 32.1417 215.239 34.1479V34.4498C215.239 36.497 214.367 39.046 208.872 39.046H207.712ZM211.5 34.3541V34.246C211.5 33.1392 210.781 32.01 208.31 32.01C205.795 32.01 205.097 33.128 205.097 34.246V34.3318C205.097 35.374 205.817 36.6237 208.31 36.6237C210.803 36.6237 211.504 35.3964 211.504 34.3578L211.5 34.3541Z" fill="white"/>
<path d="M216.387 29.9354H220.046V31.4521C220.623 30.8763 221.313 30.4263 222.073 30.1307C222.834 29.8352 223.647 29.7005 224.462 29.7354H224.578C227.692 29.7354 228.9 31.4881 228.9 33.2062V38.8173H225.176V34.4049C225.176 33.0385 224.456 32.1913 222.791 32.1913C222.448 32.1475 222.1 32.1771 221.77 32.278C221.44 32.379 221.135 32.5491 220.875 32.7769C220.616 33.0047 220.408 33.285 220.266 33.5992C220.124 33.9133 220.051 34.2541 220.051 34.5987V38.795H216.366L216.387 29.9354Z" fill="white"/>
<path d="M234.281 38.9603H234.064C231.068 38.9603 229.929 37.574 229.929 36.0858V35.9703C229.929 34.3318 231.003 33.5566 233.666 33.3119L237.735 32.9305C238.154 32.8808 238.305 32.7442 238.305 32.4634C238.305 32.1827 238.154 31.7454 235.986 31.7454H235.9C233.703 31.7454 233.616 32.4634 233.566 32.7392H230.145C230.145 31.5603 230.491 29.728 235.454 29.728H236.347C241.511 29.728 241.843 31.3156 241.843 32.6026V36.0088C241.843 36.2672 241.922 36.4547 242.303 36.4547H242.829V38.8622H239.833C239.479 38.89 239.13 38.7772 238.859 38.5483C238.589 38.3195 238.421 37.9933 238.392 37.6411C238.019 38.0547 236.895 38.9603 234.281 38.9603ZM238.307 34.5703L234.778 35.1168C233.834 35.2609 233.438 35.4262 233.438 35.9429C233.438 36.4175 233.811 36.9491 235.057 36.9491C237.031 36.9491 238.306 35.8932 238.306 34.8373L238.307 34.5703Z" fill="white"/>
<path d="M247.376 38.8087H243.681V26.5217H247.376V38.8087Z" fill="white"/>
<path d="M115.521 58.723C109.037 58.723 108.317 55.9429 108.317 54.3255V54.1454H112.337C112.387 54.8634 112.821 56.092 115.996 56.092H116.227C119.465 56.092 119.828 55.4447 119.828 54.7913C119.828 54.1379 119.446 53.6348 116.602 53.5491L114.484 53.4994C109.877 53.3752 108.469 51.8187 108.469 49.9069V49.7628C108.469 47.9305 109.564 46.0125 115.176 46.0125H116.321C122.149 46.0125 123.467 48.046 123.467 49.892V50.0572H119.482C119.402 49.5975 119.151 48.6199 115.924 48.6199H115.653C112.677 48.6199 112.462 49.1516 112.462 49.6833C112.462 50.2149 112.793 50.6671 115.3 50.6671H117.368C122.007 50.7528 123.851 51.8746 123.851 54.3168V54.5466C123.851 56.5802 122.821 58.6634 116.648 58.6634L115.521 58.723Z" fill="white"/>
<path d="M124.941 58.5069V46.2212H128.636V53.1653L132.237 49.6162H136.322L132.115 53.6324L136.827 58.5044H132.505L128.637 54.4237V58.5069H124.941Z" fill="white"/>
<path d="M140.573 58.6634H140.364C137.367 58.6634 136.221 57.2771 136.221 55.7889V55.6696C136.221 54.0385 137.302 53.2622 139.968 53.0112L144.037 52.6298C144.448 52.5802 144.599 52.4497 144.599 52.1702C144.599 51.8907 144.448 51.4522 142.28 51.4522H142.2C139.996 51.4522 139.916 52.1702 139.867 52.446H136.438V52.41C136.438 51.2385 136.784 49.4062 141.755 49.4062H142.663C147.827 49.4062 148.158 50.9876 148.158 52.2808V55.682C148.158 55.9479 148.244 56.128 148.619 56.128H149.102V58.5416H146.122C145.947 58.5575 145.77 58.5383 145.602 58.4852C145.435 58.4321 145.279 58.3462 145.145 58.2326C145.011 58.1189 144.901 57.9797 144.821 57.8231C144.741 57.6665 144.694 57.4956 144.681 57.3205C144.311 57.7503 143.187 58.6634 140.573 58.6634ZM144.593 54.2522L141.071 54.7988C140.127 54.9491 139.723 55.1143 139.723 55.6249C139.723 56.1069 140.091 56.6385 141.351 56.6385C143.318 56.6385 144.589 55.5752 144.589 54.4833L144.593 54.2522Z" fill="white"/>
<path d="M152.983 58.5058C151.376 58.5058 150.778 57.512 150.778 55.9766V52.0611H149.042V49.6176H150.778V47.0312H154.423V49.6176H156.16V52.0611H154.409V55.2797C154.409 55.7617 154.509 56.0561 155.128 56.0561H156.158V58.5058H152.983Z" fill="white"/>
<path d="M161.096 48.7653H157.401V46.2212H161.096V48.7653ZM161.096 58.5081H157.401V49.6199H161.096V58.5081Z" fill="white"/>
<path d="M162.593 49.6112H166.246V51.1342C166.824 50.5578 167.515 50.1076 168.276 49.812C169.038 49.5165 169.852 49.3821 170.668 49.4174H170.784C173.898 49.4174 175.106 51.164 175.106 52.8807V58.4994H171.382V54.1019C171.382 52.7354 170.662 51.8882 168.997 51.8882C168.654 51.8453 168.306 51.8758 167.976 51.9776C167.646 52.0795 167.342 52.2504 167.083 52.4789C166.824 52.7075 166.618 52.9884 166.477 53.303C166.335 53.6175 166.263 53.9585 166.265 54.3031V58.4994H162.578L162.593 49.6112Z" fill="white"/>
<path d="M182.755 61.7081C177.158 61.7081 176.697 59.2435 176.697 58.5317V58.4882H180.421C180.471 58.7044 180.739 59.3069 183.303 59.3069H183.353C186.105 59.3069 186.53 57.8696 186.53 56.7491C185.936 57.2491 185.247 57.625 184.505 57.8546C183.762 58.0842 182.981 58.1628 182.208 58.0858H182.014C177.843 58.0858 176.2 56.1392 176.2 53.846V53.523C176.2 51.3678 177.59 49.3914 181.546 49.3914H181.898C184.858 49.3914 186.048 50.3541 186.53 50.8286V49.6001H190.24V56.8646C190.24 58.4671 189.44 61.7094 183.98 61.7094L182.755 61.7081ZM182.957 51.6994C180.572 51.6994 179.909 52.6932 179.909 53.687V53.7665C179.909 54.7802 180.688 55.8361 182.957 55.8361H183.05C185.384 55.8361 186.413 54.8087 186.413 53.7889V53.7168C186.413 52.6609 185.368 51.7044 183.05 51.7044L182.957 51.6994Z" fill="white"/>
<path d="M116.476 78.3803C109.875 78.3803 108.797 74.1915 108.797 71.9132V65.9505H112.672V71.6983C112.672 73.2797 113.392 75.2474 116.742 75.2474C120.092 75.2474 120.784 73.2784 120.784 71.6983V65.9492H124.659V71.912C124.659 74.225 123.406 78.379 117.096 78.379L116.476 78.3803Z" fill="white"/>
<path d="M126.121 69.3166H129.78V70.8322C130.358 70.2558 131.049 69.8056 131.811 69.51C132.572 69.2145 133.386 69.0801 134.203 69.1154H134.318C137.432 69.1154 138.64 70.8682 138.64 72.5862V78.1974H134.911V73.8061C134.911 72.4396 134.191 71.5924 132.526 71.5924C132.185 71.5505 131.838 71.5815 131.51 71.6834C131.181 71.7853 130.878 71.9557 130.621 72.1834C130.364 72.4112 130.158 72.6909 130.017 73.0041C129.876 73.3172 129.804 73.6567 129.805 73.9998V78.1961H126.106L126.121 69.3166Z" fill="white"/>
<path d="M143.821 68.4584H140.125V65.9143H143.821V68.4584ZM143.821 78.2013H140.125V69.3205H143.821V78.2013Z" fill="white"/>
<path d="M144.365 69.3145H148.334L151.216 75.3927L154.003 69.3145H157.713L153.354 78.1952H148.917L144.365 69.3145Z" fill="white"/>
<path d="M170.658 75.0759C170.658 76.2833 169.866 78.446 164.556 78.446H163.612C158.865 78.446 157.338 76.2324 157.338 73.9044V73.538C157.338 71.2597 158.699 69.0659 163.519 69.0659H164.527C169.758 69.0659 170.716 71.6957 170.716 73.8585V74.4696H160.969C161.186 75.5119 162.079 76.2013 164.11 76.2013C166.56 76.2013 166.956 75.2746 166.992 75.0659H170.63L170.658 75.0759ZM164.017 71.1317C162.165 71.1317 161.337 71.692 161.057 72.6336H167.013C166.764 71.692 165.904 71.1317 164.038 71.1317H164.017Z" fill="white"/>
<path d="M175.471 78.1951H171.776V69.3156H175.435V70.8808C175.836 70.3063 176.377 69.8428 177.007 69.5336C177.637 69.2245 178.335 69.0798 179.036 69.1131H179.223C181.802 69.1131 182.825 70.7802 182.825 73.0795V73.5901H179.267C179.267 72.4472 178.768 71.4348 177.38 71.4348C177.108 71.4384 176.839 71.4984 176.592 71.6112C176.344 71.7239 176.123 71.8869 175.942 72.0897C175.761 72.2924 175.625 72.5306 175.541 72.7889C175.458 73.0472 175.429 73.3201 175.457 73.5901L175.471 78.1951Z" fill="white"/>
<path d="M189.089 78.4459C183.888 78.4459 183.36 76.4272 183.36 75.2918V75.1912H187.161C187.161 75.5217 187.286 76.3987 189.445 76.3987H189.481C191.534 76.3987 191.779 75.9825 191.779 75.5502C191.779 75.0906 191.562 74.8322 189.827 74.7738L188.236 74.7378C184.368 74.6583 183.439 73.3005 183.439 71.9639V71.8633C183.439 70.4968 184.158 69.0894 189.064 69.0894H189.726C194.228 69.0894 195.309 70.5266 195.309 71.8844V71.9999H191.55C191.499 71.6695 191.333 71.0869 189.345 71.0869C187.573 71.0869 187.228 71.303 187.228 71.7477C187.228 72.1428 187.559 72.4086 189.096 72.4658H190.682C194.791 72.5515 195.652 73.4794 195.652 75.2608V75.3614C195.652 76.9925 194.687 78.4148 189.774 78.4148L189.089 78.4459Z" fill="white"/>
<path d="M200.413 68.4584H196.725V65.9143H200.413V68.4584ZM200.413 78.2013H196.725V69.3205H200.413V78.2013Z" fill="white"/>
<path d="M205.114 78.1987C203.508 78.1987 202.91 77.2049 202.91 75.6769V71.7614H201.174V69.3204H202.91V66.7241H206.555V69.3204H208.31V71.7639H206.559V74.9825C206.559 75.4645 206.66 75.7589 207.279 75.7589H208.287V78.2024L205.114 78.1987Z" fill="white"/>
<path d="M210.761 78.6486H212.843C213.189 78.6486 213.275 78.548 213.275 78.3616C213.191 78.0274 213.052 77.7093 212.864 77.42L208.607 69.3008H212.576L215.458 75.3082L218.239 69.3008H221.945L217.278 78.7778C216.435 80.4449 215.606 81.2859 214 81.2859H210.773L210.761 78.6486Z" fill="white"/>
<path d="M31.3697 78.8225C4.14083 78.8225 1 67.1244 1 60.2983V59.5343H17.9645C18.1737 62.6672 19.9882 67.7542 33.3947 67.7542H34.376C48.0627 67.7542 49.6256 65.0387 49.6256 62.2498C49.6256 59.2536 48.0191 57.3778 36.0112 57.0262L27.0719 56.8175C7.63411 56.261 1.69865 49.7206 1.69865 41.6312V41.0101C1.69865 33.2784 6.30654 25.2026 29.9686 25.2026H34.7882C59.3657 25.2026 64.9487 33.7679 64.9487 41.5703V42.2884H48.0602C47.7077 40.3343 46.6629 36.0871 33.0485 36.0871H31.9276C19.3581 36.0871 18.4502 38.3144 18.4502 40.5418C18.4502 42.7691 19.8475 44.7877 30.4581 45.0039L39.1881 45.1405C58.743 45.4834 66.6312 50.2175 66.6312 60.5281V61.5057C66.6312 70.071 62.3098 78.8436 36.1893 78.8436L31.3697 78.8225Z" stroke="white" stroke-miterlimit="10"/>
<path d="M25.6782 59.2869V72.9391C25.6782 82.6894 30.2164 100.38 58.0941 100.38H60.5985C87.2009 100.38 92.51 82.6894 92.51 72.9391V47.79C88.1967 47.7907 84.0602 49.5002 81.0103 52.5426C77.9605 55.585 76.247 59.7112 76.2466 64.0136V71.9242C76.2466 78.6136 73.1706 86.8981 59.2112 86.8981C45.0351 86.8981 42.025 78.6136 42.025 71.9242V59.2869H25.6782Z" fill="white"/>
<path d="M38.2713 1H29.3582C25.9536 1 23.1936 3.75303 23.1936 7.14907V8.1441C23.1936 11.5401 25.9536 14.2932 29.3582 14.2932H38.2713C41.676 14.2932 44.4359 11.5401 44.4359 8.1441V7.14907C44.4359 3.75303 41.676 1 38.2713 1Z" stroke="white" stroke-miterlimit="10"/>
<path d="M41.9502 42.5539V17.2756C41.9502 17.1514 41.741 17.1104 41.6687 17.2259C41.4107 17.577 41.0702 17.8594 40.6772 18.0485C40.2842 18.2376 39.8506 18.3275 39.4146 18.3104H28.2062C27.7721 18.3267 27.3406 18.2363 26.9497 18.0472C26.5589 17.8581 26.2205 17.5761 25.9646 17.2259C25.8923 17.1179 25.6831 17.1539 25.6831 17.2756V42.5539H41.9502Z" fill="white"/>
<path d="M84.7949 41.3813C85.541 42.3789 86.534 43.1661 87.6767 43.6658" stroke="white" stroke-width="0.75" stroke-linecap="round" stroke-linejoin="round"/>
<path d="M91.4413 19.374V19.4175C91.7153 32.3504 90.9432 38.4871 90.5198 40.851C90.4045 41.5795 90.4045 42.3214 90.5198 43.0498L89.8709 42.856V43.3951L89.237 43.3094V43.9417L88.5172 43.7479L88.3441 44.5815L87.6243 43.7628" stroke="white" stroke-width="0.75" stroke-linecap="round" stroke-linejoin="round"/>
<path d="M91.4489 19.5455L91.0665 1.01385C91.0665 1.01385 88.7178 0.719438 88.6605 2.94677C88.6032 5.1741 89.3803 7.86851 85.4399 7.75422" stroke="white" stroke-width="0.75" stroke-linecap="round" stroke-linejoin="round"/>
<path d="M85.9119 10.3592C86.2871 10.2866 86.6738 10.2979 87.0441 10.3924C87.4143 10.4868 87.759 10.662 88.0532 10.9054C88.3475 11.1487 88.5839 11.4541 88.7455 11.7996C88.9072 12.1451 88.99 12.522 88.9879 12.9033C89.1822 15.9144 88.9879 26.4685 88.9879 26.4685C88.9414 27.1194 88.6526 27.7295 88.1781 28.1789C87.7036 28.6283 87.0779 28.8844 86.4237 28.897" stroke="white" stroke-width="0.75" stroke-linecap="round" stroke-linejoin="round"/>
<path d="M85.8049 38.3837C86.2657 39.016 87.6269 40.6756 88.2185 39.1017C88.6629 37.2761 88.7992 35.3894 88.622 33.5191C88.622 33.5191 88.1388 31.7514 86.5472 31.6558" stroke="white" stroke-width="0.75" stroke-linecap="round" stroke-linejoin="round"/>
<path d="M78.3325 5.01611C78.948 8.91259 79.9419 12.7401 81.3002 16.4447C81.6988 17.5511 82.138 18.7151 82.6179 19.9366C88.0564 33.5242 82.7984 43.1167 82.7984 43.1167" stroke="white" stroke-width="0.75" stroke-linecap="round" stroke-linejoin="round"/>
<path d="M84.9169 41.5975C84.7471 41.9925 84.5572 42.3785 84.3478 42.7541C84.2856 42.8645 84.1953 42.9566 84.0859 43.0209C83.9766 43.0853 83.8521 43.1196 83.7251 43.1205H82.8969C82.8969 43.1205 77.8544 45.5491 77.1346 39.6857C77.0884 39.2874 77.021 38.8918 76.9328 38.5006C76.5655 36.9079 75.995 35.3686 75.2354 33.9205C73.9779 31.3724 72.2067 29.1105 70.0328 27.2763C67.8588 25.4421 65.3289 24.0752 62.6011 23.2609C61.8681 23.0482 61.1222 22.8823 60.3681 22.764C59.4147 22.6204 58.4495 22.5701 57.4863 22.6137C56.2982 22.6634 53.7988 22.3652 54.4327 18.8634C54.5335 18.3106 54.6419 17.7565 54.7502 17.2249C55.5137 13.3801 56.4066 10.1839 57.4365 8.6025C57.818 8.18304 58.2959 7.86218 58.829 7.66745C59.3622 7.47272 59.9348 7.40994 60.4976 7.48449C62.7544 7.52662 65.0076 7.28539 67.204 6.76648L67.5278 6.68697C69.1055 6.31963 70.6286 5.74878 72.0584 4.98884C74.9402 3.30064 78.426 4.98884 78.426 4.98884L85.2544 5.06089L85.628 7.72672L86.0017 10.3354L86.2893 12.3826C85.1841 13.3189 83.8742 13.9834 82.4648 14.323C84.5835 18.9267 85.9504 23.8389 86.5135 28.8733C86.6144 29.9081 86.658 30.8783 86.6717 31.7975C86.7137 34.063 86.4719 36.3248 85.9518 38.5305C85.6911 39.5799 85.3441 40.6062 84.9144 41.5988" stroke="white" stroke-width="0.75" stroke-linecap="round" stroke-linejoin="round"/>
<path d="M67.4805 6.71191C67.4805 6.71191 70.2826 17.6051 81.3465 16.4473" stroke="white" stroke-width="0.75" stroke-linecap="round" stroke-linejoin="round"/>
<path d="M54.7603 17.1182C54.7603 17.1182 81.1036 18.5915 76.9541 38.4014" stroke="white" stroke-width="0.75" stroke-linecap="round" stroke-linejoin="round"/>
<path d="M56.8473 20.9367C57.3763 20.9367 57.805 20.509 57.805 19.9814C57.805 19.4538 57.3763 19.0261 56.8473 19.0261C56.3184 19.0261 55.8896 19.4538 55.8896 19.9814C55.8896 20.509 56.3184 20.9367 56.8473 20.9367Z" stroke="white" stroke-width="0.75" stroke-linecap="round" stroke-linejoin="round"/>
<path d="M60.6098 21.4648C61.1387 21.4648 61.5675 21.0371 61.5675 20.5095C61.5675 19.9819 61.1387 19.5542 60.6098 19.5542C60.0809 19.5542 59.6521 19.9819 59.6521 20.5095C59.6521 21.0371 60.0809 21.4648 60.6098 21.4648Z" stroke="white" stroke-width="0.75" stroke-linecap="round" stroke-linejoin="round"/>
<path d="M64.4504 22.5019C64.9793 22.5019 65.4081 22.0742 65.4081 21.5466C65.4081 21.019 64.9793 20.5913 64.4504 20.5913C63.9214 20.5913 63.4927 21.019 63.4927 21.5466C63.4927 22.0742 63.9214 22.5019 64.4504 22.5019Z" stroke="white" stroke-width="0.75" stroke-linecap="round" stroke-linejoin="round"/>
<path d="M68.2988 24.1952C68.8277 24.1952 69.2564 23.7675 69.2564 23.2399C69.2564 22.7124 68.8277 22.2847 68.2988 22.2847C67.7698 22.2847 67.3411 22.7124 67.3411 23.2399C67.3411 23.7675 67.7698 24.1952 68.2988 24.1952Z" stroke="white" stroke-width="0.75" stroke-linecap="round" stroke-linejoin="round"/>
<path d="M71.559 26.6474C72.0879 26.6474 72.5167 26.2197 72.5167 25.6921C72.5167 25.1645 72.0879 24.7368 71.559 24.7368C71.0301 24.7368 70.6013 25.1645 70.6013 25.6921C70.6013 26.2197 71.0301 26.6474 71.559 26.6474Z" stroke="white" stroke-width="0.75" stroke-linecap="round" stroke-linejoin="round"/>
<path d="M74.2678 29.8485C74.7967 29.8485 75.2254 29.4209 75.2254 28.8933C75.2254 28.3657 74.7967 27.938 74.2678 27.938C73.7388 27.938 73.3101 28.3657 73.3101 28.8933C73.3101 29.4209 73.7388 29.8485 74.2678 29.8485Z" stroke="white" stroke-width="0.75" stroke-linecap="round" stroke-linejoin="round"/>
</svg>
