<svg width="247" height="100" viewBox="0 0 247 100" fill="none" xmlns="http://www.w3.org/2000/svg">
<g clip-path="url(#clip0_72_990)">
<path d="M112.454 38.4298H108.599V26.1428H112.454V38.4298Z" fill="#3400D6"/>
<path d="M114.122 29.5565H117.775V31.0732C118.352 30.4969 119.044 30.0467 119.805 29.7511C120.566 29.4556 121.381 29.3212 122.197 29.3565H122.313C125.427 29.3565 126.635 31.1093 126.635 32.8273V38.4385H122.911V34.0248C122.911 32.6583 122.191 31.8111 120.526 31.8111C120.184 31.7678 119.836 31.7978 119.507 31.8991C119.177 32.0004 118.873 32.1707 118.615 32.3985C118.356 32.6264 118.15 32.9066 118.009 33.2205C117.867 33.5343 117.795 33.8746 117.796 34.2186V38.4149H114.101L114.122 29.5565Z" fill="#3400D6"/>
<path d="M131.264 38.4286C129.657 38.4286 129.059 37.4348 129.059 35.8994V31.9876H127.328V29.5652H129.064V26.9503H132.71V29.5652H134.461V32.0087H132.71V35.2273C132.71 35.7093 132.811 36.0037 133.429 36.0037H134.438V38.4472L131.264 38.4286Z" fill="#3400D6"/>
<path d="M148.492 35.3044C148.492 36.5118 147.7 38.6746 142.39 38.6746H141.44C136.685 38.6746 135.166 36.4609 135.166 34.1329V33.7665C135.166 31.4882 136.519 29.2944 141.339 29.2944H142.348C147.578 29.2944 148.542 31.9242 148.542 34.087V34.6982H138.796C139.012 35.7404 139.905 36.4298 141.944 36.4298C144.394 36.4298 144.79 35.5031 144.826 35.287H148.471L148.492 35.3044ZM141.817 31.3652C139.959 31.3652 139.137 31.9255 138.849 32.8671H144.813C144.564 31.9255 143.704 31.3652 141.831 31.3652H141.817Z" fill="#3400D6"/>
<path d="M153.29 38.4161H149.591V29.5565H153.25V31.123C153.651 30.5485 154.192 30.085 154.822 29.7758C155.452 29.4667 156.15 29.322 156.851 29.3553H157.032C159.619 29.3553 160.634 31.0224 160.634 33.3217V33.8323H157.076C157.076 32.6894 156.577 31.677 155.189 31.677C154.917 31.6814 154.65 31.7421 154.403 31.8552C154.156 31.9684 153.935 32.1314 153.755 32.3341C153.575 32.5368 153.439 32.7746 153.356 33.0326C153.273 33.2905 153.244 33.5628 153.272 33.8323L153.29 38.4161Z" fill="#3400D6"/>
<path d="M161.686 29.5566H165.345V31.0733C165.921 30.4975 166.611 30.0475 167.372 29.7519C168.132 29.4564 168.945 29.3218 169.761 29.3566H169.885C172.999 29.3566 174.207 31.1094 174.207 32.8274V38.4386H170.483V34.0261C170.483 32.6597 169.763 31.8125 168.098 31.8125C167.755 31.7687 167.407 31.7983 167.077 31.8993C166.747 32.0002 166.442 32.1703 166.182 32.3981C165.923 32.6259 165.715 32.9063 165.573 33.2204C165.431 33.5345 165.358 33.8753 165.358 34.2199V38.4162H161.671L161.686 29.5566Z" fill="#3400D6"/>
<path d="M179.504 38.5814H179.288C176.291 38.5814 175.153 37.1951 175.153 35.7069V35.5914C175.153 33.9529 176.227 33.1777 178.889 32.933L182.959 32.5516C183.376 32.5019 183.521 32.3653 183.521 32.0845C183.521 31.8038 183.376 31.3665 181.208 31.3665H181.122C178.961 31.3665 178.838 32.0845 178.788 32.3603H175.367C175.367 31.1814 175.713 29.3491 180.676 29.3491H181.592C186.756 29.3491 187.088 30.9367 187.088 32.2237V35.6299C187.088 35.8883 187.167 36.0758 187.548 36.0758H188.031V38.4833H185.035C184.682 38.5111 184.332 38.3983 184.062 38.1694C183.792 37.9406 183.624 37.6144 183.594 37.2622C183.243 37.6758 182.118 38.5814 179.504 38.5814ZM183.524 34.1914L180.003 34.7379C179.059 34.882 178.663 35.0473 178.663 35.564C178.663 36.0386 179.022 36.5702 180.282 36.5702C182.255 36.5702 183.52 35.5143 183.52 34.4584L183.524 34.1914Z" fill="#3400D6"/>
<path d="M191.927 38.4286C190.321 38.4286 189.723 37.4348 189.723 35.8994V31.9876H187.987V29.5652H189.723V26.9503H193.325V29.5652H195.085V32.0087H193.328V35.2273C193.328 35.7093 193.429 36.0037 194.048 36.0037H195.057V38.4472L191.927 38.4286Z" fill="#3400D6"/>
<path d="M200.036 28.6869H196.348V26.1428H200.036V28.6869ZM200.036 38.4298H196.348V29.5702H200.036V38.4298Z" fill="#3400D6"/>
<path d="M207.335 38.6671C202.17 38.6671 200.931 36.123 200.931 34.0709V33.769C200.931 31.7218 202.155 29.2783 207.32 29.2783H208.494C213.925 29.2783 214.862 31.7628 214.862 33.769V34.0709C214.862 36.1181 213.99 38.6671 208.494 38.6671H207.335ZM211.123 33.9752V33.8671C211.123 32.7603 210.403 31.6311 207.933 31.6311C205.418 31.6311 204.72 32.7491 204.72 33.8671V33.9529C204.72 34.9951 205.439 36.2448 207.933 36.2448C210.426 36.2448 211.127 35.0175 211.127 33.9789L211.123 33.9752Z" fill="#3400D6"/>
<path d="M216.01 29.5566H219.669V31.0733C220.246 30.4975 220.936 30.0475 221.696 29.7519C222.456 29.4564 223.27 29.3218 224.085 29.3566H224.201C227.314 29.3566 228.522 31.1094 228.522 32.8274V38.4386H224.799V34.0261C224.799 32.6597 224.079 31.8125 222.414 31.8125C222.071 31.7687 221.723 31.7983 221.393 31.8993C221.062 32.0002 220.757 32.1703 220.498 32.3981C220.239 32.6259 220.031 32.9063 219.889 33.2204C219.747 33.5345 219.674 33.8753 219.674 34.2199V38.4162H215.989L216.01 29.5566Z" fill="#3400D6"/>
<path d="M233.904 38.5814H233.687C230.691 38.5814 229.552 37.1951 229.552 35.7069V35.5914C229.552 33.9529 230.626 33.1777 233.288 32.933L237.358 32.5516C237.777 32.5019 237.927 32.3653 237.927 32.0845C237.927 31.8038 237.777 31.3665 235.609 31.3665H235.523C233.326 31.3665 233.239 32.0845 233.189 32.3603H229.768C229.768 31.1814 230.114 29.3491 235.077 29.3491H235.97C241.134 29.3491 241.466 30.9367 241.466 32.2237V35.6299C241.466 35.8883 241.545 36.0758 241.926 36.0758H242.452V38.4833H239.455C239.102 38.5111 238.752 38.3983 238.482 38.1694C238.212 37.9406 238.044 37.6144 238.015 37.2622C237.642 37.6758 236.518 38.5814 233.904 38.5814ZM237.93 34.1914L234.4 34.7379C233.457 34.882 233.06 35.0473 233.06 35.564C233.06 36.0386 233.434 36.5702 234.679 36.5702C236.653 36.5702 237.929 35.5143 237.929 34.4584L237.93 34.1914Z" fill="#3400D6"/>
<path d="M246.999 38.4298H243.304V26.1428H246.999V38.4298Z" fill="#3400D6"/>
<path d="M115.143 58.3441C108.66 58.3441 107.94 55.564 107.94 53.9466V53.7665H111.96C112.01 54.4845 112.443 55.713 115.619 55.713H115.85C119.088 55.713 119.451 55.0658 119.451 54.4124C119.451 53.759 119.069 53.2559 116.224 53.1702L114.107 53.1205C109.499 52.9963 108.092 51.4398 108.092 49.528V49.3839C108.092 47.5516 109.187 45.6335 114.798 45.6335H115.944C121.771 45.6335 123.09 47.6671 123.09 49.513V49.6783H119.105C119.025 49.2186 118.774 48.241 115.547 48.241H115.275C112.3 48.241 112.085 48.7727 112.085 49.3043C112.085 49.836 112.416 50.2882 114.923 50.2882H116.99C121.629 50.3739 123.474 51.4957 123.474 53.9379V54.1677C123.474 56.2012 122.444 58.2845 116.27 58.2845L115.143 58.3441Z" fill="#3400D6"/>
<path d="M124.563 58.128V45.8423H128.258V52.7864L131.86 49.2373H135.945L131.738 53.2535L136.449 58.1255H132.128L128.26 54.0448V58.128H124.563Z" fill="#3400D6"/>
<path d="M140.196 58.2845H139.986C136.99 58.2845 135.844 56.8982 135.844 55.41V55.2907C135.844 53.6596 136.925 52.8832 139.59 52.6323L143.66 52.2509C144.071 52.2012 144.222 52.0708 144.222 51.7913C144.222 51.5118 144.071 51.0733 141.903 51.0733H141.823C139.619 51.0733 139.539 51.7913 139.489 52.0671H136.061V52.0311C136.061 50.8596 136.407 49.0273 141.377 49.0273H142.285C147.45 49.0273 147.781 50.6087 147.781 51.9019V55.3031C147.781 55.569 147.867 55.7491 148.242 55.7491H148.725V58.1627H145.745C145.57 58.1785 145.393 58.1594 145.225 58.1063C145.057 58.0532 144.902 57.9673 144.768 57.8536C144.634 57.74 144.524 57.6008 144.444 57.4442C144.364 57.2876 144.317 57.1167 144.304 56.9416C143.934 57.3714 142.81 58.2845 140.196 58.2845ZM144.216 53.8733L140.694 54.4199C139.75 54.5702 139.346 54.7354 139.346 55.246C139.346 55.728 139.714 56.2596 140.974 56.2596C142.94 56.2596 144.212 55.1963 144.212 54.1044L144.216 53.8733Z" fill="#3400D6"/>
<path d="M152.605 58.1268C150.999 58.1268 150.401 57.133 150.401 55.5976V51.682H148.665V49.2386H150.401V46.6522H154.046V49.2386H155.782V51.682H154.031V54.9007C154.031 55.3827 154.132 55.6771 154.751 55.6771H155.781V58.1268H152.605Z" fill="#3400D6"/>
<path d="M160.719 48.3864H157.024V45.8423H160.719V48.3864ZM160.719 58.1292H157.024V49.241H160.719V58.1292Z" fill="#3400D6"/>
<path d="M162.216 49.2323H165.869V50.7552C166.446 50.1789 167.138 49.7287 167.899 49.4331C168.66 49.1376 169.475 49.0032 170.291 49.0385H170.407C173.52 49.0385 174.728 50.7851 174.728 52.5018V58.1205H171.005V53.723C171.005 52.3565 170.285 51.5093 168.62 51.5093C168.277 51.4664 167.929 51.4968 167.599 51.5987C167.269 51.7006 166.964 51.8715 166.706 52.1C166.447 52.3286 166.241 52.6095 166.099 52.9241C165.958 53.2386 165.886 53.5796 165.887 53.9242V58.1205H162.201L162.216 49.2323Z" fill="#3400D6"/>
<path d="M182.378 61.3292C176.781 61.3292 176.32 58.8646 176.32 58.1528V58.1093H180.044C180.094 58.3255 180.361 58.928 182.926 58.928H182.975C185.728 58.928 186.152 57.4907 186.152 56.3702C185.558 56.8702 184.87 57.2461 184.128 57.4757C183.385 57.7053 182.604 57.7839 181.831 57.7069H181.637C177.466 57.7069 175.823 55.7603 175.823 53.4671V53.1441C175.823 50.9888 177.213 49.0125 181.168 49.0125H181.521C184.481 49.0125 185.67 49.9752 186.152 50.4497V49.2211H189.862V56.4857C189.862 58.0882 189.063 61.3305 183.603 61.3305L182.378 61.3292ZM182.579 51.3205C180.194 51.3205 179.532 52.3143 179.532 53.3081V53.3876C179.532 54.4013 180.31 55.4572 182.579 55.4572H182.673C185.007 55.4572 186.035 54.4298 186.035 53.41V53.3379C186.035 52.282 184.99 51.3255 182.673 51.3255L182.579 51.3205Z" fill="#3400D6"/>
<path d="M116.099 78.0012C109.498 78.0012 108.42 73.8124 108.42 71.5342V65.5714H112.295V71.3193C112.295 72.9006 113.015 74.8683 116.365 74.8683C119.715 74.8683 120.406 72.8994 120.406 71.3193V65.5702H124.282V71.5329C124.282 73.846 123.029 78 116.719 78L116.099 78.0012Z" fill="#3400D6"/>
<path d="M125.744 68.9378H129.403V70.4534C129.981 69.877 130.672 69.4268 131.433 69.1312C132.195 68.8357 133.009 68.7013 133.825 68.7366H133.941C137.055 68.7366 138.263 70.4894 138.263 72.2074V77.8186H134.534V73.4273C134.534 72.0608 133.814 71.2136 132.149 71.2136C131.808 71.1717 131.461 71.2027 131.133 71.3046C130.804 71.4065 130.501 71.577 130.244 71.8047C129.986 72.0324 129.781 72.3121 129.64 72.6253C129.499 72.9385 129.427 73.2779 129.428 73.6211V77.8173H125.729L125.744 68.9378Z" fill="#3400D6"/>
<path d="M143.443 68.0795H139.748V65.5354H143.443V68.0795ZM143.443 77.8224H139.748V68.9416H143.443V77.8224Z" fill="#3400D6"/>
<path d="M143.988 68.9354H147.957L150.838 75.0137L153.625 68.9354H157.335L152.977 77.8162H148.539L143.988 68.9354Z" fill="#3400D6"/>
<path d="M170.281 74.6969C170.281 75.9044 169.489 78.0671 164.179 78.0671H163.235C158.488 78.0671 156.961 75.8535 156.961 73.5255V73.1591C156.961 70.8808 158.322 68.687 163.141 68.687H164.15C169.381 68.687 170.338 71.3168 170.338 73.4796V74.0907H160.592C160.809 75.133 161.702 75.8224 163.733 75.8224C166.183 75.8224 166.579 74.8957 166.615 74.687H170.253L170.281 74.6969ZM163.64 70.7528C161.788 70.7528 160.96 71.3131 160.679 72.2547H166.636C166.387 71.3131 165.526 70.7528 163.661 70.7528H163.64Z" fill="#3400D6"/>
<path d="M175.093 77.8162H171.398V68.9367H175.057V70.5019C175.459 69.9274 176 69.4639 176.63 69.1547C177.26 68.8456 177.958 68.7009 178.659 68.7342H178.846C181.425 68.7342 182.447 70.4013 182.447 72.7006V73.2112H178.889C178.889 72.0683 178.391 71.0559 177.003 71.0559C176.731 71.0595 176.462 71.1195 176.215 71.2323C175.967 71.345 175.746 71.508 175.565 71.7108C175.384 71.9135 175.247 72.1517 175.164 72.41C175.08 72.6683 175.052 72.9412 175.08 73.2112L175.093 77.8162Z" fill="#3400D6"/>
<path d="M188.712 78.0671C183.511 78.0671 182.983 76.0485 182.983 74.9131V74.8124H186.784C186.784 75.1429 186.908 76.0199 189.068 76.0199H189.104C191.156 76.0199 191.402 75.6037 191.402 75.1714C191.402 74.7118 191.185 74.4534 189.45 74.395L187.859 74.359C183.99 74.2795 183.061 72.9218 183.061 71.5851V71.4845C183.061 70.118 183.781 68.7106 188.687 68.7106H189.349C193.851 68.7106 194.932 70.1478 194.932 71.5056V71.6211H191.172C191.121 71.2907 190.956 70.7081 188.968 70.7081C187.196 70.7081 186.851 70.9242 186.851 71.369C186.851 71.764 187.182 72.0298 188.719 72.087H190.304C194.414 72.1727 195.275 73.1006 195.275 74.882V74.9826C195.275 76.6137 194.31 78.036 189.397 78.036L188.712 78.0671Z" fill="#3400D6"/>
<path d="M200.036 68.0795H196.348V65.5354H200.036V68.0795ZM200.036 77.8224H196.348V68.9416H200.036V77.8224Z" fill="#3400D6"/>
<path d="M204.737 77.8199C203.13 77.8199 202.533 76.8261 202.533 75.2981V71.3826H200.797V68.9416H202.533V66.3453H206.178V68.9416H207.933V71.3851H206.182V74.6037C206.182 75.0857 206.282 75.3801 206.901 75.3801H207.91V77.8236L204.737 77.8199Z" fill="#3400D6"/>
<path d="M210.383 78.2696H212.466C212.812 78.2696 212.898 78.169 212.898 77.9826C212.814 77.6484 212.675 77.3303 212.487 77.041L208.23 68.9218H212.199L215.081 74.9292L217.862 68.9218H221.568L216.901 78.3988C216.057 80.0658 215.229 80.9068 213.623 80.9068H210.396L210.383 78.2696Z" fill="#3400D6"/>
<path d="M30.9925 78.4435C3.76364 78.4435 0.622803 66.7453 0.622803 59.9193V59.1553H17.5873C17.7965 62.2882 19.611 67.3752 33.0175 67.3752H33.9988C47.6855 67.3752 49.2484 64.6596 49.2484 61.8708C49.2484 58.8745 47.6419 56.9988 35.634 56.6472L26.6947 56.4385C7.25691 55.882 1.32146 49.3416 1.32146 41.2522V40.6311C1.32146 32.8994 5.92934 24.8236 29.5914 24.8236H34.411C58.9885 24.8236 64.5715 33.3888 64.5715 41.1913V41.9093H47.683C47.3306 39.9553 46.2857 35.7081 32.6713 35.7081H31.5504C18.9809 35.7081 18.073 37.9354 18.073 40.1627C18.073 42.3901 19.4703 44.4087 30.0809 44.6248L38.8109 44.7615C58.3658 45.1044 66.254 49.8385 66.254 60.1491V61.1267C66.254 69.6919 61.9326 78.4646 35.8121 78.4646L30.9925 78.4435Z" stroke="#3400D6" stroke-miterlimit="10"/>
<path d="M25.301 58.908V72.5602C25.301 82.3105 29.8392 100.001 57.7169 100.001H60.2213C86.8237 100.001 92.1328 82.3105 92.1328 72.5602V47.4111C87.8195 47.4118 83.683 49.1213 80.6331 52.1637C77.5833 55.2061 75.8698 59.3323 75.8694 63.6347V71.5453C75.8694 78.2347 72.7934 86.5192 58.834 86.5192C44.6579 86.5192 41.6478 78.2347 41.6478 71.5453V58.908H25.301Z" fill="#3400D6"/>
<path d="M37.8941 0.621094H28.981C25.5764 0.621094 22.8164 3.37413 22.8164 6.77016V7.76519C22.8164 11.1612 25.5764 13.9143 28.981 13.9143H37.8941C41.2988 13.9143 44.0587 11.1612 44.0587 7.76519V6.77016C44.0587 3.37413 41.2988 0.621094 37.8941 0.621094Z" stroke="#3400D6" stroke-miterlimit="10"/>
<path d="M41.573 42.1751V16.8968C41.573 16.7726 41.3638 16.7316 41.2915 16.8471C41.0335 17.1982 40.693 17.4806 40.3 17.6697C39.907 17.8588 39.4734 17.9487 39.0374 17.9316H27.829C27.3949 17.9479 26.9634 17.8575 26.5725 17.6684C26.1817 17.4793 25.8434 17.1973 25.5874 16.8471C25.5151 16.7391 25.3059 16.7751 25.3059 16.8968V42.1751H41.573Z" fill="#3400D6"/>
<path d="M84.4177 41.0024C85.1638 42 86.1568 42.7872 87.2995 43.2869" stroke="#3400D6" stroke-width="0.75" stroke-linecap="round" stroke-linejoin="round"/>
<path d="M91.0641 18.995V19.0385C91.3381 31.9714 90.566 38.108 90.1426 40.472C90.0273 41.2004 90.0273 41.9424 90.1426 42.6708L89.4937 42.477V43.0161L88.8598 42.9304V43.5627L88.14 43.3689L87.9669 44.2024L87.2471 43.3838" stroke="#3400D6" stroke-width="0.75" stroke-linecap="round" stroke-linejoin="round"/>
<path d="M91.0717 19.1665L90.6893 0.634819C90.6893 0.634819 88.3406 0.340409 88.2833 2.56774C88.226 4.79507 89.0031 7.48948 85.0627 7.37519" stroke="#3400D6" stroke-width="0.75" stroke-linecap="round" stroke-linejoin="round"/>
<path d="M85.5347 9.98012C85.9099 9.90755 86.2966 9.91889 86.6669 10.0133C87.0372 10.1078 87.3818 10.283 87.676 10.5263C87.9703 10.7697 88.2067 11.0751 88.3683 11.4206C88.53 11.7661 88.6128 12.143 88.6107 12.5242C88.805 15.5354 88.6107 26.0894 88.6107 26.0894C88.5642 26.7404 88.2754 27.3505 87.8009 27.7999C87.3264 28.2492 86.7007 28.5054 86.0465 28.518" stroke="#3400D6" stroke-width="0.75" stroke-linecap="round" stroke-linejoin="round"/>
<path d="M85.4277 38.0049C85.8885 38.6372 87.2497 40.2969 87.8413 38.7229C88.2857 36.8973 88.422 35.0106 88.2448 33.1403C88.2448 33.1403 87.7616 31.3726 86.17 31.277" stroke="#3400D6" stroke-width="0.75" stroke-linecap="round" stroke-linejoin="round"/>
<path d="M77.9553 4.63721C78.5708 8.53369 79.5647 12.3612 80.9231 16.0658C81.3216 17.1722 81.7608 18.3362 82.2407 19.5577C87.6792 33.1453 82.4212 42.7378 82.4212 42.7378" stroke="#3400D6" stroke-width="0.75" stroke-linecap="round" stroke-linejoin="round"/>
<path d="M84.5397 41.2186C84.37 41.6136 84.18 41.9996 83.9706 42.3751C83.9084 42.4856 83.8181 42.5777 83.7087 42.642C83.5994 42.7064 83.4749 42.7407 83.3479 42.7416H82.5197C82.5197 42.7416 77.4772 45.1702 76.7574 39.3068C76.7112 38.9085 76.6438 38.5129 76.5556 38.1217C76.1883 36.529 75.6178 34.9897 74.8582 33.5416C73.6007 30.9935 71.8295 28.7316 69.6556 26.8974C67.4817 25.0632 64.9517 23.6963 62.2239 22.882C61.4909 22.6693 60.745 22.5033 59.9909 22.3851C59.0375 22.2415 58.0723 22.1912 57.1091 22.2348C55.921 22.2845 53.4216 21.9863 54.0555 18.4845C54.1563 17.9317 54.2647 17.3776 54.373 16.846C55.1365 13.0012 56.0294 9.80496 57.0593 8.22359C57.4408 7.80414 57.9187 7.48328 58.4518 7.28855C58.985 7.09382 59.5576 7.03103 60.1204 7.10558C62.3772 7.14772 64.6304 6.90648 66.8268 6.38757L67.1506 6.30807C68.7283 5.94073 70.2514 5.36988 71.6812 4.60993C74.563 2.92173 78.0488 4.60993 78.0488 4.60993L84.8772 4.68198L85.2508 7.34782L85.6245 9.95651L85.9121 12.0037C84.807 12.9399 83.497 13.6045 82.0876 13.9441C84.2063 18.5478 85.5732 23.46 86.1363 28.4944C86.2372 29.5292 86.2808 30.4994 86.2945 31.4186C86.3365 33.6841 86.0947 35.9459 85.5746 38.1515C85.3139 39.201 84.967 40.2273 84.5372 41.2199" stroke="#3400D6" stroke-width="0.75" stroke-linecap="round" stroke-linejoin="round"/>
<path d="M67.1033 6.33289C67.1033 6.33289 69.9054 17.2261 80.9693 16.0683" stroke="#3400D6" stroke-width="0.75" stroke-linecap="round" stroke-linejoin="round"/>
<path d="M54.3831 16.7391C54.3831 16.7391 80.7265 18.2124 76.5769 38.0224" stroke="#3400D6" stroke-width="0.75" stroke-linecap="round" stroke-linejoin="round"/>
<path d="M56.4701 20.5578C56.9991 20.5578 57.4278 20.1301 57.4278 19.6025C57.4278 19.0749 56.9991 18.6472 56.4701 18.6472C55.9412 18.6472 55.5125 19.0749 55.5125 19.6025C55.5125 20.1301 55.9412 20.5578 56.4701 20.5578Z" stroke="#3400D6" stroke-width="0.75" stroke-linecap="round" stroke-linejoin="round"/>
<path d="M60.2326 21.0857C60.7615 21.0857 61.1903 20.658 61.1903 20.1305C61.1903 19.6029 60.7615 19.1752 60.2326 19.1752C59.7037 19.1752 59.2749 19.6029 59.2749 20.1305C59.2749 20.658 59.7037 21.0857 60.2326 21.0857Z" stroke="#3400D6" stroke-width="0.75" stroke-linecap="round" stroke-linejoin="round"/>
<path d="M64.0732 22.123C64.6021 22.123 65.0309 21.6953 65.0309 21.1677C65.0309 20.6401 64.6021 20.2124 64.0732 20.2124C63.5443 20.2124 63.1155 20.6401 63.1155 21.1677C63.1155 21.6953 63.5443 22.123 64.0732 22.123Z" stroke="#3400D6" stroke-width="0.75" stroke-linecap="round" stroke-linejoin="round"/>
<path d="M67.9216 23.8162C68.4505 23.8162 68.8793 23.3885 68.8793 22.8609C68.8793 22.3333 68.4505 21.9056 67.9216 21.9056C67.3926 21.9056 66.9639 22.3333 66.9639 22.8609C66.9639 23.3885 67.3926 23.8162 67.9216 23.8162Z" stroke="#3400D6" stroke-width="0.75" stroke-linecap="round" stroke-linejoin="round"/>
<path d="M71.1818 26.2683C71.7107 26.2683 72.1395 25.8407 72.1395 25.3131C72.1395 24.7855 71.7107 24.3578 71.1818 24.3578C70.6529 24.3578 70.2241 24.7855 70.2241 25.3131C70.2241 25.8407 70.6529 26.2683 71.1818 26.2683Z" stroke="#3400D6" stroke-width="0.75" stroke-linecap="round" stroke-linejoin="round"/>
<path d="M73.8906 29.4695C74.4195 29.4695 74.8482 29.0418 74.8482 28.5142C74.8482 27.9867 74.4195 27.559 73.8906 27.559C73.3616 27.559 72.9329 27.9867 72.9329 28.5142C72.9329 29.0418 73.3616 29.4695 73.8906 29.4695Z" stroke="#3400D6" stroke-width="0.75" stroke-linecap="round" stroke-linejoin="round"/>
</g>
<defs>
<clipPath id="clip0_72_990">
<rect width="247" height="100" fill="white"/>
</clipPath>
</defs>
</svg>
