<svg width="66" height="50" viewBox="0 0 66 50" fill="none" xmlns="http://www.w3.org/2000/svg">
<path d="M8.25 6.25C7.11562 6.25 6.1875 7.1875 6.1875 8.33333V11.2109L28.4238 29.6484C31.0922 31.862 34.9207 31.862 37.5891 29.6484L59.8125 11.2109V8.33333C59.8125 7.1875 58.8844 6.25 57.75 6.25H8.25ZM6.1875 19.2969V41.6667C6.1875 42.8125 7.11562 43.75 8.25 43.75H57.75C58.8844 43.75 59.8125 42.8125 59.8125 41.6667V19.2969L41.5078 34.4792C36.5578 38.5807 29.4293 38.5807 24.4922 34.4792L6.1875 19.2969ZM0 8.33333C0 3.73698 3.69961 0 8.25 0H57.75C62.3004 0 66 3.73698 66 8.33333V41.6667C66 46.263 62.3004 50 57.75 50H8.25C3.69961 50 0 46.263 0 41.6667V8.33333Z" fill="url(#paint0_linear_72_904)"/>
<defs>
<linearGradient id="paint0_linear_72_904" x1="8.5" y1="66.8478" x2="67.6084" y2="-11.1306" gradientUnits="userSpaceOnUse">
<stop offset="0.169792" stop-color="#F336A6" stop-opacity="0.9"/>
<stop offset="0.773958" stop-color="#8F7FF1"/>
</linearGradient>
</defs>
</svg>
