<svg width="50" height="50" viewBox="0 0 50 50" fill="none" xmlns="http://www.w3.org/2000/svg">
<path d="M25 0C11.1928 0 0 11.1928 0 25C0 38.8072 11.1928 50 25 50C38.8072 50 50 38.8072 50 25C50 11.1928 38.8072 0 25 0ZM36.5879 17.002C36.2117 20.9551 34.5838 30.5482 33.7552 34.9758C33.4048 36.8492 32.7147 37.4774 32.0468 37.5388C30.5952 37.6725 29.4925 36.5794 28.0864 35.6577C25.8861 34.2153 24.643 33.3174 22.5072 31.91C20.0389 30.2835 21.639 29.3898 23.0457 27.9281C23.4138 27.5458 29.8105 21.7275 29.9343 21.1997C29.9497 21.1337 29.9645 20.8872 29.8179 20.7578C29.6714 20.6283 29.456 20.6722 29.3003 20.7074C29.0797 20.7575 25.5646 23.0808 18.7551 27.6773C17.7575 28.3624 16.8538 28.6962 16.0441 28.6787C15.1514 28.6595 13.4344 28.1741 12.1579 27.7591C10.5922 27.2502 9.34788 26.9812 9.45625 26.1168C9.5127 25.6666 10.1327 25.2062 11.3161 24.7358C18.6042 21.5605 23.464 19.4671 25.8956 18.4555C32.8383 15.5677 34.2809 15.0661 35.2213 15.0494C35.4281 15.046 35.8905 15.0972 36.19 15.3402C36.3892 15.5134 36.5162 15.755 36.5459 16.0172C36.5966 16.3429 36.6107 16.6732 36.5879 17.002Z" fill="url(#paint0_linear_71_1333)"/>
<defs>
<linearGradient id="paint0_linear_71_1333" x1="6.43939" y1="66.8478" x2="67.831" y2="5.49135" gradientUnits="userSpaceOnUse">
<stop offset="0.169792" stop-color="#F336A6" stop-opacity="0.9"/>
<stop offset="0.773958" stop-color="#8F7FF1"/>
</linearGradient>
</defs>
</svg>
