<svg width="50" height="50" viewBox="0 0 50 50" fill="none" xmlns="http://www.w3.org/2000/svg">
<path d="M50 20.5042C45.085 20.5145 40.2906 19.1734 36.294 16.6702V34.1278C36.2927 37.3611 35.1632 40.517 33.0566 43.1735C30.9499 45.83 27.9666 47.8605 24.5055 48.9934C21.0444 50.1263 17.2705 50.3077 13.6884 49.5133C10.1063 48.7189 6.8868 46.9866 4.46031 44.5479C2.03382 42.1093 0.516046 39.0807 0.109934 35.8669C-0.296179 32.6532 0.428728 29.4075 2.18772 26.564C3.94672 23.7205 6.65596 21.4146 9.95318 19.9546C13.2504 18.4947 16.9784 17.9503 20.6388 18.3943V27.1749C18.9638 26.7139 17.1652 26.7277 15.4998 27.2145C13.8343 27.7013 12.3873 28.6361 11.3652 29.8854C10.3432 31.1346 9.79846 32.6346 9.80881 34.1709C9.81915 35.7072 10.384 37.2014 11.4228 38.4401C12.4616 39.6787 13.9211 40.5985 15.593 41.0681C17.2649 41.5377 19.0636 41.533 20.7322 41.0548C22.4009 40.5766 23.8542 39.6492 24.8846 38.4052C25.915 37.1612 26.4698 35.6641 26.4697 34.1278V0H36.294C36.2872 0.725907 36.3567 1.45082 36.5017 2.16559C36.843 3.76119 37.5529 5.27908 38.5877 6.62642C39.6225 7.97376 40.9606 9.12222 42.5202 10.0016C44.7389 11.2852 47.3401 11.9693 50 11.9689V20.5042Z" fill="url(#paint0_linear_71_1344)"/>
<defs>
<linearGradient id="paint0_linear_71_1344" x1="6.43939" y1="66.8478" x2="67.831" y2="5.49135" gradientUnits="userSpaceOnUse">
<stop offset="0.169792" stop-color="#F336A6" stop-opacity="0.9"/>
<stop offset="0.773958" stop-color="#8F7FF1"/>
</linearGradient>
</defs>
</svg>
