<svg width="50" height="50" viewBox="0 0 50 50" fill="none" xmlns="http://www.w3.org/2000/svg">
<path d="M42.5112 7.26562C37.8348 2.57812 31.6071 0 24.9888 0C11.3281 0 0.212054 11.1161 0.212054 24.7768C0.212054 29.1406 1.35045 33.404 3.51562 37.1652L0 50L13.1362 46.5513C16.7522 48.5268 20.8259 49.5647 24.9777 49.5647H24.9888C38.6384 49.5647 50 38.4487 50 24.7879C50 18.1696 47.1875 11.9531 42.5112 7.26562ZM24.9888 45.3906C21.2835 45.3906 17.6562 44.3973 14.4978 42.5223L13.75 42.0759L5.95982 44.1183L8.03571 36.5179L7.54464 35.7366C5.47991 32.4554 4.39732 28.6719 4.39732 24.7768C4.39732 13.4263 13.6384 4.18527 25 4.18527C30.5022 4.18527 35.6696 6.32812 39.5536 10.2232C43.4375 14.1183 45.8259 19.2857 45.8147 24.7879C45.8147 36.1496 36.3393 45.3906 24.9888 45.3906ZM36.2835 29.9665C35.6696 29.654 32.6228 28.1585 32.0536 27.9576C31.4844 27.7455 31.0714 27.6451 30.6585 28.2701C30.2455 28.8951 29.0625 30.279 28.6942 30.7031C28.3371 31.1161 27.9688 31.1719 27.3549 30.8594C23.7165 29.0402 21.3281 27.6116 18.9286 23.4933C18.2924 22.3996 19.5647 22.4777 20.7478 20.1116C20.9487 19.6987 20.8482 19.3415 20.692 19.029C20.5357 18.7165 19.2969 15.6696 18.7835 14.4308C18.2813 13.2254 17.7679 13.3929 17.3884 13.3705C17.0313 13.3482 16.6183 13.3482 16.2054 13.3482C15.7924 13.3482 15.1228 13.5045 14.5536 14.1183C13.9844 14.7433 12.3884 16.2388 12.3884 19.2857C12.3884 22.3326 14.6094 25.279 14.9107 25.692C15.2232 26.1049 19.2746 32.3549 25.4911 35.0446C29.4196 36.7411 30.9598 36.8862 32.9241 36.596C34.1183 36.4174 36.5848 35.1004 37.0982 33.6496C37.6116 32.1987 37.6116 30.9598 37.4554 30.7031C37.3103 30.4241 36.8973 30.2679 36.2835 29.9665Z" fill="url(#paint0_linear_71_1331)"/>
<defs>
<linearGradient id="paint0_linear_71_1331" x1="6.43939" y1="66.8478" x2="67.831" y2="5.49135" gradientUnits="userSpaceOnUse">
<stop offset="0.169792" stop-color="#F336A6" stop-opacity="0.9"/>
<stop offset="0.773958" stop-color="#8F7FF1"/>
</linearGradient>
</defs>
</svg>
