<svg width="72" height="50" viewBox="0 0 72 50" fill="none" xmlns="http://www.w3.org/2000/svg">
<path d="M70.4955 7.82331C69.6674 4.74388 67.2277 2.31862 64.1299 1.49557C58.515 0 36 0 36 0C36 0 13.4851 0 7.87007 1.49557C4.77232 2.31875 2.33257 4.74388 1.50451 7.82331C0 13.4049 0 25.0505 0 25.0505C0 25.0505 0 36.6961 1.50451 42.2777C2.33257 45.3572 4.77232 47.6814 7.87007 48.5044C13.4851 50 36 50 36 50C36 50 58.5149 50 64.1299 48.5044C67.2277 47.6814 69.6674 45.3572 70.4955 42.2777C72 36.6961 72 25.0505 72 25.0505C72 25.0505 72 13.4049 70.4955 7.82331ZM28.6363 35.6238V14.4772L47.4544 25.0508L28.6363 35.6238Z" fill="url(#paint0_linear_49_608)"/>
<defs>
<linearGradient id="paint0_linear_49_608" x1="9.27273" y1="66.8478" x2="66.8089" y2="-15.9568" gradientUnits="userSpaceOnUse">
<stop offset="0.169792" stop-color="#F336A6" stop-opacity="0.9"/>
<stop offset="0.773958" stop-color="#8F7FF1"/>
</linearGradient>
</defs>
</svg>
