<?xml version="1.0" standalone="no"?>
<!DOCTYPE svg PUBLIC "-//W3C//DTD SVG 20010904//EN"
 "http://www.w3.org/TR/2001/REC-SVG-20010904/DTD/svg10.dtd">
<svg version="1.0" xmlns="http://www.w3.org/2000/svg"
 width="100.000000pt" height="100.000000pt" viewBox="0 0 100.000000 100.000000"
 preserveAspectRatio="xMidYMid meet">
<metadata>
Created by potrace 1.14, written by Peter Selinger 2001-2017
</metadata>
<g transform="translate(0.000000,100.000000) scale(0.100000,-0.100000)"
fill="#000000" stroke="none">
<path d="M281 974 c-33 -42 -11 -112 36 -115 7 0 33 -1 58 -1 68 0 70 1 92 21
15 14 20 29 17 53 -6 50 -32 66 -113 67 -64 1 -71 -1 -90 -25z"/>
<path d="M925 989 c-4 -6 -4 -13 -1 -16 3 -4 6 0 6 8 0 11 2 11 10 -1 8 -13
10 -12 10 3 0 19 -15 23 -25 6z"/>
<path d="M750 955 c-14 -8 -20 -14 -14 -15 5 0 19 7 30 15 24 18 16 19 -16 0z"/>
<path d="M823 953 c9 -2 25 -2 35 0 9 3 1 5 -18 5 -19 0 -27 -2 -17 -5z"/>
<path d="M907 938 c-10 -10 -16 -24 -15 -31 2 -7 -7 -25 -19 -40 l-22 -28 -11
43 c-15 58 -21 70 -15 28 9 -57 37 -123 46 -108 7 10 9 10 9 -1 0 -8 2 -12 5
-9 3 3 2 13 -1 22 -5 14 -9 15 -15 4 -7 -10 -9 -10 -9 3 0 16 40 69 53 69 4 0
8 -10 8 -22 1 -20 2 -21 6 -4 3 12 -2 25 -13 33 -17 12 -17 14 1 33 23 26 16
33 -8 8z"/>
<path d="M670 930 c-9 -6 -10 -10 -3 -10 6 0 15 5 18 10 8 12 4 12 -15 0z"/>
<path d="M705 930 c3 -5 8 -10 11 -10 2 0 4 5 4 10 0 6 -5 10 -11 10 -5 0 -7
-4 -4 -10z"/>
<path d="M628 923 c7 -3 16 -2 19 1 4 3 -2 6 -13 5 -11 0 -14 -3 -6 -6z"/>
<path d="M720 903 c0 -5 10 -18 23 -29 l22 -19 -20 25 c-11 14 -21 27 -22 29
-2 2 -3 0 -3 -6z"/>
<path d="M942 890 c0 -14 2 -19 5 -12 2 6 2 18 0 25 -3 6 -5 1 -5 -13z"/>
<path d="M591 874 c0 -11 3 -14 6 -6 3 7 2 16 -1 19 -3 4 -6 -2 -5 -13z"/>
<path d="M778 848 c5 -5 16 -8 23 -6 8 3 3 7 -10 11 -17 4 -21 3 -13 -5z"/>
<path d="M945 849 c-4 -6 -5 -12 -2 -15 2 -3 7 2 10 11 7 17 1 20 -8 4z"/>
<path d="M582 815 c1 -19 4 -35 8 -35 12 0 30 26 23 33 -8 9 30 9 51 1 25 -10
6 -34 -28 -35 l-31 -1 36 -7 c45 -9 102 -44 129 -79 11 -15 17 -20 14 -11 -3
10 -1 20 5 24 6 3 11 0 11 -9 0 -8 3 -22 7 -32 5 -13 3 -15 -7 -9 -10 6 -12 4
-7 -9 4 -10 7 -25 8 -34 1 -9 5 -2 9 16 10 42 -5 99 -33 131 -24 25 -116 71
-145 71 -10 0 -24 -6 -31 -12 -11 -11 -13 -10 -8 4 3 10 2 20 -3 23 -5 3 -9
-10 -8 -30z m146 -29 c41 -21 68 -54 55 -67 -17 -17 -35 0 -27 24 6 19 5 20
-9 9 -12 -11 -20 -10 -45 5 -22 13 -26 21 -18 30 14 15 12 15 44 -1z"/>
<path d="M710 770 c0 -5 5 -10 10 -10 6 0 10 5 10 10 0 6 -4 10 -10 10 -5 0
-10 -4 -10 -10z"/>
<path d="M288 791 c-3 -30 -7 -35 -33 -38 -140 -15 -205 -68 -205 -163 0 -107
88 -156 286 -159 139 -3 193 -17 194 -53 0 -15 -33 -38 -54 -38 -20 0 -23 5
-21 35 l3 35 -84 0 -84 0 0 -35 c0 -19 -5 -35 -10 -35 -13 0 -55 41 -62 60 -3
10 -26 14 -87 14 -46 1 -85 -3 -88 -7 -12 -19 11 -81 42 -116 37 -41 123 -75
202 -80 6 -1 16 -16 22 -33 23 -65 62 -107 129 -140 59 -29 76 -33 167 -35
159 -4 248 28 304 111 43 61 51 105 51 269 l0 147 -27 -6 c-32 -7 -71 -30 -93
-53 -29 -30 -40 -72 -40 -147 0 -135 -51 -188 -177 -187 -67 1 -115 21 -139
58 -13 19 -12 21 9 21 12 0 46 6 75 13 174 43 194 257 29 306 -29 9 -111 19
-187 22 -74 3 -145 10 -157 14 -34 12 -29 45 7 58 29 10 30 9 30 -20 l0 -29
86 0 c68 0 85 3 81 13 -3 8 -2 20 3 27 6 10 15 6 36 -15 26 -26 36 -29 101
-30 40 -1 78 2 84 6 22 13 1 76 -36 108 -34 30 -117 61 -162 61 -23 0 -27 10
-24 55 2 19 -4 20 -83 20 l-85 0 -3 -34z"/>
<path d="M630 800 c0 -5 5 -10 10 -10 6 0 10 5 10 10 0 6 -4 10 -10 10 -5 0
-10 -4 -10 -10z"/>
<path d="M922 773 c-2 -46 -22 -71 -22 -27 0 52 -11 16 -19 -62 -5 -44 -12
-87 -16 -96 -5 -12 -2 -17 12 -17 10 1 28 -2 41 -6 13 -5 22 -3 22 4 0 5 -6 8
-14 5 -15 -6 -46 21 -46 39 0 8 4 7 12 -1 15 -15 28 -15 28 -1 0 5 -4 8 -9 5
-13 -8 -21 19 -21 67 0 25 4 37 8 29 13 -20 34 29 29 69 -4 32 -4 32 -5 -8z"/>
<path d="M871 764 c0 -11 3 -14 6 -6 3 7 2 16 -1 19 -3 4 -6 -2 -5 -13z"/>
<path d="M940 699 c0 -5 5 -7 10 -4 6 3 10 8 10 11 0 2 -4 4 -10 4 -5 0 -10
-5 -10 -11z"/>
<path d="M903 663 c0 -16 1 -20 4 -10 2 9 9 15 14 12 5 -3 6 1 3 9 -9 25 -20
19 -21 -11z"/>
<path d="M941 664 c0 -11 3 -14 6 -6 3 7 2 16 -1 19 -3 4 -6 -2 -5 -13z"/>
<path d="M942 615 c0 -16 2 -22 5 -12 2 9 2 23 0 30 -3 6 -5 -1 -5 -18z"/>
<path d="M822 574 c10 -10 20 -16 22 -13 3 3 -5 11 -17 18 -21 13 -21 12 -5
-5z"/>
</g>
</svg>
