<svg version="1.0" xmlns="http://www.w3.org/2000/svg" width="133.333" height="133.333" viewBox="0 0 100 100"><path d="M28.1 2.6c-3.3 4.2-1.1 11.2 3.6 11.5.7 0 3.3.1 5.8.1 6.8 0 7-.1 9.2-2.1 1.5-1.4 2-2.9 1.7-5.3-.6-5-3.2-6.6-11.3-6.7-6.4-.1-7.1.1-9 2.5zm64.4-1.5c-.4.6-.4 1.3-.1 1.6.3.4.6 0 .6-.8 0-1.1.2-1.1 1 .1.8 1.3 1 1.2 1-.3 0-1.9-1.5-2.3-2.5-.6zM75 4.5c-1.4.8-2 1.4-1.4 1.5.5 0 1.9-.7 3-1.5 2.4-1.8 1.6-1.9-1.6 0zm7.3.2c.9.2 2.5.2 3.5 0 .9-.3.1-.5-1.8-.5-1.9 0-2.7.2-1.7.5zm8.4 1.5c-1 1-1.6 2.4-1.5 3.1.2.7-.7 2.5-1.9 4l-2.2 2.8-1.1-4.3c-1.5-5.8-2.1-7-1.5-2.8.9 5.7 3.7 12.3 4.6 10.8.7-1 .9-1 .9.1 0 .8.2 1.2.5.9.3-.3.2-1.3-.1-2.2-.5-1.4-.9-1.5-1.5-.4-.7 1-.9 1-.9-.3 0-1.6 4-6.9 5.3-6.9.4 0 .8 1 .8 2.2.1 2 .2 2.1.6.4.3-1.2-.2-2.5-1.3-3.3-1.7-1.2-1.7-1.4.1-3.3 2.3-2.6 1.6-3.3-.8-.8zM67 7c-.9.6-1 1-.3 1 .6 0 1.5-.5 1.8-1 .8-1.2.4-1.2-1.5 0zm3.5 0c.3.5.8 1 1.1 1 .2 0 .4-.5.4-1 0-.6-.5-1-1.1-1-.5 0-.7.4-.4 1zm-7.7.7c.7.3 1.6.2 1.9-.1.4-.3-.2-.6-1.3-.5-1.1 0-1.4.3-.6.6zm9.2 2c0 .5 1 1.8 2.3 2.9l2.2 1.9-2-2.5c-1.1-1.4-2.1-2.7-2.2-2.9-.2-.2-.3 0-.3.6zM94.2 11c0 1.4.2 1.9.5 1.2.2-.6.2-1.8 0-2.5-.3-.6-.5-.1-.5 1.3zm-35.1 1.6c0 1.1.3 1.4.6.6.3-.7.2-1.6-.1-1.9-.3-.4-.6.2-.5 1.3zm18.7 2.6c.5.5 1.6.8 2.3.6.8-.3.3-.7-1-1.1-1.7-.4-2.1-.3-1.3.5zm16.7-.1c-.4.6-.5 1.2-.2 1.5.2.3.7-.2 1-1.1.7-1.7.1-2-.8-.4zm-36.3 3.4c.1 1.9.4 3.5.8 3.5 1.2 0 3-2.6 2.3-3.3-.8-.9 3-.9 5.1-.1 2.5 1 .6 3.4-2.8 3.5l-3.1.1 3.6.7c4.5.9 10.2 4.4 12.9 7.9 1.1 1.5 1.7 2 1.4 1.1-.3-1-.1-2 .5-2.4.6-.3 1.1 0 1.1.9 0 .8.3 2.2.7 3.2.5 1.3.3 1.5-.7.9s-1.2-.4-.7.9c.4 1 .7 2.5.8 3.4.1.9.5.2.9-1.6 1-4.2-.5-9.9-3.3-13.1-2.4-2.5-11.6-7.1-14.5-7.1-1 0-2.4.6-3.1 1.2-1.1 1.1-1.3 1-.8-.4.3-1 .2-2-.3-2.3-.5-.3-.9 1-.8 3zm14.6 2.9c4.1 2.1 6.8 5.4 5.5 6.7-1.7 1.7-3.5 0-2.7-2.4.6-1.9.5-2-.9-.9-1.2 1.1-2 1-4.5-.5-2.2-1.3-2.6-2.1-1.8-3 1.4-1.5 1.2-1.5 4.4.1z"/><path d="M71 23c0 .5.5 1 1 1 .6 0 1-.5 1-1 0-.6-.4-1-1-1-.5 0-1 .4-1 1zm-42.2-2.1c-.3 3-.7 3.5-3.3 3.8C11.5 26.2 5 31.5 5 41c0 10.7 8.8 15.6 28.6 15.9 13.9.3 19.3 1.7 19.4 5.3 0 1.5-3.3 3.8-5.4 3.8-2 0-2.3-.5-2.1-3.5l.3-3.5H29v3.5c0 1.9-.5 3.5-1 3.5-1.3 0-5.5-4.1-6.2-6-.3-1-2.6-1.4-8.7-1.4-4.6-.1-8.5.3-8.8.7-1.2 1.9 1.1 8.1 4.2 11.6 3.7 4.1 12.3 7.5 20.2 8 .6.1 1.6 1.6 2.2 3.3 2.3 6.5 6.2 10.7 12.9 14 5.9 2.9 7.6 3.3 16.7 3.5 15.9.4 24.8-2.8 30.4-11.1 4.3-6.1 5.1-10.5 5.1-26.9V47l-2.7.6c-3.2.7-7.1 3-9.3 5.3-2.9 3-4 7.2-4 14.7 0 13.5-5.1 18.8-17.7 18.7-6.7-.1-11.5-2.1-13.9-5.8-1.3-1.9-1.2-2.1.9-2.1 1.2 0 4.6-.6 7.5-1.3 17.4-4.3 19.4-25.7 2.9-30.6-2.9-.9-11.1-1.9-18.7-2.2-7.4-.3-14.5-1-15.7-1.4-3.4-1.2-2.9-4.5.7-5.8 2.9-1 3-.9 3 2V42h8.6c6.8 0 8.5-.3 8.1-1.3-.3-.8-.2-2 .3-2.7.6-1 1.5-.6 3.6 1.5 2.6 2.6 3.6 2.9 10.1 3 4 .1 7.8-.2 8.4-.6 2.2-1.3.1-7.6-3.6-10.8-3.4-3-11.7-6.1-16.2-6.1-2.3 0-2.7-1-2.4-5.5.2-1.9-.4-2-8.3-2h-8.5l-.3 3.4zM63 20c0 .5.5 1 1 1 .6 0 1-.5 1-1 0-.6-.4-1-1-1-.5 0-1 .4-1 1z"/><path d="M92.2 22.7c-.2 4.6-2.2 7.1-2.2 2.7 0-5.2-1.1-1.6-1.9 6.2-.5 4.4-1.2 8.7-1.6 9.6-.5 1.2-.2 1.7 1.2 1.7 1-.1 2.8.2 4.1.6 1.3.5 2.2.3 2.2-.4 0-.5-.6-.8-1.4-.5-1.5.6-4.6-2.1-4.6-3.9 0-.8.4-.7 1.2.1 1.5 1.5 2.8 1.5 2.8.1 0-.5-.4-.8-.9-.5-1.3.8-2.1-1.9-2.1-6.7 0-2.5.4-3.7.8-2.9 1.3 2 3.4-2.9 2.9-6.9-.4-3.2-.4-3.2-.5.8zm-5.1.9c0 1.1.3 1.4.6.6.3-.7.2-1.6-.1-1.9-.3-.4-.6.2-.5 1.3zm6.9 6.5c0 .5.5.7 1 .4.6-.3 1-.8 1-1.1 0-.2-.4-.4-1-.4-.5 0-1 .5-1 1.1z"/><path d="M90.3 33.7c0 1.6.1 2 .4 1 .2-.9.9-1.5 1.4-1.2.5.3.6-.1.3-.9-.9-2.5-2-1.9-2.1 1.1zm3.8-.1c0 1.1.3 1.4.6.6.3-.7.2-1.6-.1-1.9-.3-.4-.6.2-.5 1.3zm.1 4.9c0 1.6.2 2.2.5 1.2.2-.9.2-2.3 0-3-.3-.6-.5.1-.5 1.8zm-12 4.1c1 1 2 1.6 2.2 1.3.3-.3-.5-1.1-1.7-1.8-2.1-1.3-2.1-1.2-.5.5z"/></svg>