<svg width="63" height="54" fill="none" xmlns="http://www.w3.org/2000/svg"><path d="M5.346 44.968a10.07 10.07 0 00-3.195 4.03" stroke="url(#paint0_linear_122_3128)" stroke-width=".75" stroke-linecap="round" stroke-linejoin="round"/><path d="M36.353 53.467h-.06c-18.088.383-26.67-.697-29.977-1.29a9.832 9.832 0 00-3.075 0l.27-.907h-.753l.12-.886h-.885l.272-1.007-1.166-.242 1.145-1.007" stroke="url(#paint1_linear_122_3128)" stroke-width=".75" stroke-linecap="round" stroke-linejoin="round"/><path d="M35.986 53.48l25.919-.534s.411-3.285-2.704-3.365c-3.115-.08-6.883 1.007-6.723-4.504" stroke="url(#paint2_linear_122_3128)" stroke-width=".75" stroke-linecap="round" stroke-linejoin="round"/><path d="M48.782 44.81a3.623 3.623 0 01-.764 2.995 3.607 3.607 0 01-2.795 1.307c-4.211.272-18.972 0-18.972 0a3.653 3.653 0 01-2.392-1.132 3.67 3.67 0 01-1.004-2.454" stroke="url(#paint3_linear_122_3128)" stroke-width=".75" stroke-linecap="round" stroke-linejoin="round"/><path d="M9.6 45.868c-.883.644-3.205 2.548-1.003 3.375 2.553.622 5.192.813 7.807.565 0 0 2.473-.676 2.607-2.902" stroke="url(#paint4_linear_122_3128)" stroke-width=".75" stroke-linecap="round" stroke-linejoin="round"/><path d="M55.83 34.556a84.91 84.91 0 00-15.984 4.15 182.715 182.715 0 00-4.884 1.843c-19.003 7.607-32.42.253-32.42.253" stroke="url(#paint5_linear_122_3128)" stroke-width=".75" stroke-linecap="round" stroke-linejoin="round"/><path d="M3.827 43.777a17.549 17.549 0 01-1.617-.796 1.005 1.005 0 01-.513-.871v-1.158s-3.396-7.053 4.804-8.06c.557-.064 1.11-.159 1.657-.282a26.715 26.715 0 006.406-2.374 28.883 28.883 0 009.293-7.276 28.968 28.968 0 005.616-10.394c.297-1.025.53-2.068.695-3.123.2-1.333.27-2.683.21-4.03-.07-1.662.347-5.158 5.245-4.271.773.14 1.548.292 2.291.444 5.378 1.068 9.848 2.316 12.06 3.757a4.91 4.91 0 011.563 4.281 37.733 37.733 0 001.004 9.38l.112.452a26.129 26.129 0 002.375 6.337c2.36 4.03 0 8.906 0 8.906l-.101 9.55-3.729.522-3.648.523-2.863.402a12.977 12.977 0 01-2.714-5.349 66.306 66.306 0 01-20.35 5.663 49.508 49.508 0 01-4.09.22 37.96 37.96 0 01-9.416-1.006 27.472 27.472 0 01-4.292-1.45" stroke="url(#paint6_linear_122_3128)" stroke-width=".75" stroke-linecap="round" stroke-linejoin="round"/><path d="M52.886 18.46S37.651 22.379 39.27 37.853" stroke="url(#paint7_linear_122_3128)" stroke-width=".75" stroke-linecap="round" stroke-linejoin="round"/><path d="M37.74 1.896S35.68 38.74 7.974 32.936" stroke="url(#paint8_linear_122_3128)" stroke-width=".75" stroke-linecap="round" stroke-linejoin="round"/><path d="M31.692 4.25c0 .74.598 1.34 1.336 1.34.738 0 1.336-.6 1.336-1.34 0-.739-.598-1.339-1.336-1.339-.738 0-1.336.6-1.336 1.34z" stroke="url(#paint9_linear_122_3128)" stroke-width=".75" stroke-linecap="round" stroke-linejoin="round"/><path d="M31.237 9.545c0 .74.598 1.34 1.336 1.34.737 0 1.336-.6 1.336-1.34 0-.74-.599-1.34-1.336-1.34-.738 0-1.336.6-1.336 1.34z" stroke="url(#paint10_linear_122_3128)" stroke-width=".75" stroke-linecap="round" stroke-linejoin="round"/><path d="M30.076 14.986c0 .74.598 1.34 1.335 1.34.738 0 1.337-.6 1.337-1.34 0-.74-.599-1.34-1.336-1.34-.738 0-1.336.6-1.336 1.34z" stroke="url(#paint11_linear_122_3128)" stroke-width=".75" stroke-linecap="round" stroke-linejoin="round"/><path d="M28 20.488a1.337 1.337 0 102.672-.001c0-.74-.599-1.339-1.336-1.339-.738 0-1.336.6-1.336 1.34z" stroke="url(#paint12_linear_122_3128)" stroke-width=".75" stroke-linecap="round" stroke-linejoin="round"/><path d="M24.82 25.225c0 .74.598 1.34 1.335 1.34.738 0 1.336-.6 1.336-1.34 0-.74-.598-1.34-1.336-1.34-.738 0-1.336.6-1.336 1.34z" stroke="url(#paint13_linear_122_3128)" stroke-width=".75" stroke-linecap="round" stroke-linejoin="round"/><path d="M20.552 29.247c0 .74.598 1.34 1.336 1.34.737 0 1.336-.6 1.336-1.34 0-.74-.599-1.339-1.336-1.339-.738 0-1.336.6-1.336 1.34z" stroke="url(#paint14_linear_122_3128)" stroke-width=".75" stroke-linecap="round" stroke-linejoin="round"/><defs><linearGradient id="paint0_linear_122_3128" x1="1.075" y1="45.487" x2="5.891" y2="49.307" gradientUnits="userSpaceOnUse"><stop offset=".17" stop-color="#F336A6" stop-opacity=".9"/><stop offset=".774" stop-color="#8F7FF1"/></linearGradient><linearGradient id="paint1_linear_122_3128" x1="-10.781" y1="48.826" x2="-8.785" y2="61.819" gradientUnits="userSpaceOnUse"><stop offset=".17" stop-color="#F336A6" stop-opacity=".9"/><stop offset=".774" stop-color="#8F7FF1"/></linearGradient><linearGradient id="paint2_linear_122_3128" x1="27.247" y1="46.159" x2="33.293" y2="64.827" gradientUnits="userSpaceOnUse"><stop offset=".17" stop-color="#F336A6" stop-opacity=".9"/><stop offset=".774" stop-color="#8F7FF1"/></linearGradient><linearGradient id="paint3_linear_122_3128" x1="14.096" y1="45.38" x2="15.89" y2="55.93" gradientUnits="userSpaceOnUse"><stop offset=".17" stop-color="#F336A6" stop-opacity=".9"/><stop offset=".774" stop-color="#8F7FF1"/></linearGradient><linearGradient id="paint4_linear_122_3128" x1="3.856" y1="46.389" x2="6.997" y2="55.196" gradientUnits="userSpaceOnUse"><stop offset=".17" stop-color="#F336A6" stop-opacity=".9"/><stop offset=".774" stop-color="#8F7FF1"/></linearGradient><linearGradient id="paint5_linear_122_3128" x1="-15.413" y1="35.772" x2="-11.435" y2="58.237" gradientUnits="userSpaceOnUse"><stop offset=".17" stop-color="#F336A6" stop-opacity=".9"/><stop offset=".774" stop-color="#8F7FF1"/></linearGradient><linearGradient id="paint6_linear_122_3128" x1="-17.559" y1="6.826" x2="36.889" y2="73.155" gradientUnits="userSpaceOnUse"><stop offset=".17" stop-color="#F336A6" stop-opacity=".9"/><stop offset=".774" stop-color="#8F7FF1"/></linearGradient><linearGradient id="paint7_linear_122_3128" x1="34.521" y1="20.957" x2="56.975" y2="36.871" gradientUnits="userSpaceOnUse"><stop offset=".17" stop-color="#F336A6" stop-opacity=".9"/><stop offset=".774" stop-color="#8F7FF1"/></linearGradient><linearGradient id="paint8_linear_122_3128" x1="-2.056" y1="5.974" x2="36.722" y2="42.454" gradientUnits="userSpaceOnUse"><stop offset=".17" stop-color="#F336A6" stop-opacity=".9"/><stop offset=".774" stop-color="#8F7FF1"/></linearGradient><linearGradient id="paint9_linear_122_3128" x1="30.791" y1="3.256" x2="34.079" y2="6.537" gradientUnits="userSpaceOnUse"><stop offset=".17" stop-color="#F336A6" stop-opacity=".9"/><stop offset=".774" stop-color="#8F7FF1"/></linearGradient><linearGradient id="paint10_linear_122_3128" x1="30.336" y1="8.551" x2="33.623" y2="11.831" gradientUnits="userSpaceOnUse"><stop offset=".17" stop-color="#F336A6" stop-opacity=".9"/><stop offset=".774" stop-color="#8F7FF1"/></linearGradient><linearGradient id="paint11_linear_122_3128" x1="29.175" y1="13.992" x2="32.462" y2="17.273" gradientUnits="userSpaceOnUse"><stop offset=".17" stop-color="#F336A6" stop-opacity=".9"/><stop offset=".774" stop-color="#8F7FF1"/></linearGradient><linearGradient id="paint12_linear_122_3128" x1="27.099" y1="19.493" x2="30.386" y2="22.774" gradientUnits="userSpaceOnUse"><stop offset=".17" stop-color="#F336A6" stop-opacity=".9"/><stop offset=".774" stop-color="#8F7FF1"/></linearGradient><linearGradient id="paint13_linear_122_3128" x1="23.919" y1="24.23" x2="27.206" y2="27.511" gradientUnits="userSpaceOnUse"><stop offset=".17" stop-color="#F336A6" stop-opacity=".9"/><stop offset=".774" stop-color="#8F7FF1"/></linearGradient><linearGradient id="paint14_linear_122_3128" x1="19.651" y1="28.253" x2="22.938" y2="31.534" gradientUnits="userSpaceOnUse"><stop offset=".17" stop-color="#F336A6" stop-opacity=".9"/><stop offset=".774" stop-color="#8F7FF1"/></linearGradient></defs></svg>