<svg width="63" height="54" fill="none" xmlns="http://www.w3.org/2000/svg"><path d="M5.346 44.968a10.07 10.07 0 00-3.195 4.03m34.202 4.469h-.06c-18.088.383-26.67-.697-29.977-1.29a9.838 9.838 0 00-3.075 0l.27-.907h-.753l.12-.886h-.885l.272-1.007-1.166-.242 1.145-1.007" stroke="#FF0198" stroke-width=".75" stroke-linecap="round" stroke-linejoin="round"/><path d="M35.986 53.48l25.919-.534s.411-3.285-2.704-3.365c-3.115-.08-6.883 1.007-6.723-4.504" stroke="#FF0198" stroke-width=".75" stroke-linecap="round" stroke-linejoin="round"/><path d="M48.782 44.81a3.623 3.623 0 01-.764 2.995 3.607 3.607 0 01-2.795 1.307c-4.211.272-18.972 0-18.972 0a3.653 3.653 0 01-2.392-1.132 3.67 3.67 0 01-1.004-2.454M9.6 45.868c-.883.644-3.205 2.548-1.003 3.375 2.553.622 5.192.813 7.807.565 0 0 2.473-.676 2.607-2.902m36.819-12.35a84.91 84.91 0 00-15.984 4.15 182.715 182.715 0 00-4.884 1.843c-19.003 7.607-32.42.253-32.42.253" stroke="#FF0198" stroke-width=".75" stroke-linecap="round" stroke-linejoin="round"/><path d="M3.827 43.777a17.549 17.549 0 01-1.617-.796 1.005 1.005 0 01-.513-.871v-1.158s-3.396-7.053 4.804-8.06c.557-.064 1.11-.159 1.657-.282a26.715 26.715 0 006.406-2.374 28.883 28.883 0 009.293-7.276 28.968 28.968 0 005.616-10.394c.297-1.025.53-2.068.695-3.123.2-1.333.27-2.683.21-4.03-.07-1.662.347-5.158 5.245-4.271.773.14 1.548.292 2.291.444 5.378 1.068 9.848 2.316 12.06 3.757a4.91 4.91 0 011.563 4.281 37.733 37.733 0 001.004 9.38l.112.452a26.129 26.129 0 002.375 6.337c2.36 4.03 0 8.906 0 8.906l-.101 9.55-3.729.522-3.648.523-2.863.402a12.977 12.977 0 01-2.714-5.349 66.306 66.306 0 01-20.35 5.663 49.508 49.508 0 01-4.09.22 37.96 37.96 0 01-9.416-1.006 27.472 27.472 0 01-4.292-1.45M52.886 18.46S37.651 22.379 39.27 37.853M37.74 1.896S35.68 38.74 7.974 32.936" stroke="#FF0198" stroke-width=".75" stroke-linecap="round" stroke-linejoin="round"/><path d="M31.692 4.25c0 .74.598 1.34 1.336 1.34.738 0 1.336-.6 1.336-1.34 0-.739-.598-1.339-1.336-1.339-.738 0-1.336.6-1.336 1.34zm-.455 5.295c0 .74.598 1.34 1.336 1.34.737 0 1.336-.6 1.336-1.34 0-.74-.599-1.34-1.336-1.34-.738 0-1.336.6-1.336 1.34zm-1.161 5.441c0 .74.598 1.34 1.335 1.34.738 0 1.337-.6 1.337-1.34 0-.74-.599-1.34-1.336-1.34-.738 0-1.336.6-1.336 1.34zM28 20.488a1.337 1.337 0 102.672-.001c0-.74-.599-1.339-1.336-1.339-.738 0-1.336.6-1.336 1.34zm-3.18 4.737c0 .74.598 1.34 1.335 1.34.738 0 1.336-.6 1.336-1.34 0-.74-.598-1.34-1.336-1.34-.738 0-1.336.6-1.336 1.34zm-4.268 4.022c0 .74.598 1.34 1.336 1.34.737 0 1.336-.6 1.336-1.34 0-.74-.599-1.339-1.336-1.339-.738 0-1.336.6-1.336 1.34z" stroke="#FF0198" stroke-width=".75" stroke-linecap="round" stroke-linejoin="round"/></svg>