<svg width="51" height="50" fill="none" xmlns="http://www.w3.org/2000/svg"><path d="M25.02 12.18A12.801 12.801 0 0012.196 25c0 7.096 5.725 12.82 12.824 12.82A12.801 12.801 0 0037.843 25c0-7.096-5.725-12.82-12.824-12.82zm0 21.154c-4.587 0-8.337-3.737-8.337-8.334 0-4.597 3.738-8.334 8.337-8.334 4.598 0 8.337 3.737 8.337 8.334 0 4.597-3.75 8.334-8.337 8.334zm16.339-21.678c0 1.663-1.34 2.99-2.991 2.99a2.99 2.99 0 112.991-2.99zm8.493 3.035c-.19-4.005-1.105-7.553-4.04-10.476C42.888 1.29 39.339.377 35.332.175c-4.13-.234-16.507-.234-20.636 0C10.7.366 7.15 1.28 4.216 4.204 1.281 7.127.376 10.674.176 14.68c-.235 4.128-.235 16.501 0 20.629.19 4.005 1.105 7.553 4.04 10.477 2.935 2.923 6.473 3.837 10.48 4.038 4.13.235 16.507.235 20.636 0 4.007-.19 7.556-1.104 10.48-4.038 2.924-2.924 3.84-6.472 4.04-10.477.235-4.128.235-16.49 0-20.618zm-5.335 25.047a8.44 8.44 0 01-4.754 4.753c-3.293 1.306-11.105 1.004-14.743 1.004-3.639 0-11.463.29-14.744-1.004a8.439 8.439 0 01-4.754-4.753C4.216 36.448 4.517 28.638 4.517 25c0-3.637-.29-11.458 1.005-14.738a8.44 8.44 0 014.754-4.753C13.57 4.203 21.381 4.505 25.02 4.505c3.638 0 11.462-.29 14.743 1.004a8.44 8.44 0 014.754 4.753c1.306 3.29 1.005 11.1 1.005 14.738 0 3.637.301 11.458-1.005 14.738z" fill="url(#paint0_linear_71_1350)"/><defs><linearGradient id="paint0_linear_71_1350" x1="6.443" y1="66.848" x2="67.835" y2="5.457" gradientUnits="userSpaceOnUse"><stop offset=".17" stop-color="#F336A6" stop-opacity=".9"/><stop offset=".774" stop-color="#8F7FF1"/></linearGradient></defs></svg>