<svg width="50" height="50" fill="none" xmlns="http://www.w3.org/2000/svg"><path d="M25 25c3.789 0 7.422-1.317 10.102-3.661 2.679-2.344 4.184-5.524 4.184-8.839 0-3.315-1.505-6.495-4.184-8.839C32.422 1.317 28.789 0 25 0c-3.789 0-7.422 1.317-10.101 3.661-2.68 2.344-4.185 5.524-4.185 8.839 0 3.315 1.505 6.495 4.184 8.839C17.579 23.683 21.212 25 25 25zm-5.1 4.688C8.906 29.688 0 37.48 0 47.1 0 48.7 1.484 50 3.315 50h43.37C48.515 50 50 48.701 50 47.1c0-9.62-8.906-17.413-19.9-17.413H19.9z" fill="#fff"/></svg>