<svg width="248" height="101" fill="none" xmlns="http://www.w3.org/2000/svg"><path d="M112.831 38.809h-3.855V26.522h3.855v12.287zm1.668-8.873h3.653v1.516a5.9 5.9 0 014.422-1.717h.116c3.114 0 4.322 1.753 4.322 3.471v5.611h-3.724v-4.413c0-1.367-.72-2.214-2.385-2.214a2.43 2.43 0 00-2.517 1.41 2.419 2.419 0 00-.213.998v4.196h-3.695l.021-8.858zm17.142 8.871c-1.607 0-2.204-.993-2.204-2.529v-3.912h-1.731v-2.422h1.736v-2.615h3.645v2.615h1.751v2.444h-1.751v3.218c0 .482.101.776.72.776h1.008v2.444l-3.174-.019zm17.228-3.124c0 1.208-.792 3.37-6.102 3.37h-.95c-4.755 0-6.274-2.213-6.274-4.541v-.367c0-2.278 1.353-4.472 6.173-4.472h1.009c5.23 0 6.194 2.63 6.194 4.793v.611h-9.746c.217 1.042 1.11 1.732 3.148 1.732 2.45 0 2.846-.927 2.882-1.143h3.645l.021.017zm-6.675-3.939c-1.858 0-2.68.56-2.967 1.502h5.964c-.249-.942-1.11-1.502-2.983-1.502h-.014zm11.473 7.051h-3.699v-8.86h3.659v1.567a4.142 4.142 0 013.602-1.768h.18c2.587 0 3.602 1.667 3.602 3.967v.51h-3.558c0-1.143-.498-2.155-1.887-2.155a1.962 1.962 0 00-1.833 1.355c-.083.258-.112.53-.084.8l.018 4.584zm8.396-8.86h3.659v1.517a5.885 5.885 0 014.416-1.717h.124c3.114 0 4.322 1.753 4.322 3.471v5.611h-3.724v-4.412c0-1.367-.72-2.214-2.385-2.214a2.438 2.438 0 00-1.916.586 2.424 2.424 0 00-.824 1.822v4.196h-3.687l.015-8.86zm17.819 9.025h-.217c-2.996 0-4.135-1.386-4.135-2.874v-.116c0-1.638 1.074-2.413 3.736-2.658l4.07-.381c.417-.05.562-.187.562-.468 0-.28-.145-.718-2.313-.718h-.086c-2.16 0-2.284.718-2.333.994h-3.422c0-1.179.347-3.011 5.31-3.011h.915c5.164 0 5.496 1.588 5.496 2.875v3.406c0 .258.079.446.46.446h.484v2.407h-2.997a1.342 1.342 0 01-1.441-1.22c-.351.413-1.475 1.318-4.089 1.318zm4.02-4.39l-3.522.547c-.944.144-1.34.31-1.34.826 0 .474.36 1.006 1.619 1.006 1.974 0 3.238-1.056 3.238-2.112l.005-.267zm8.402 4.237c-1.606 0-2.204-.993-2.204-2.529v-3.912h-1.736v-2.422h1.736v-2.615h3.602v2.615h1.761v2.444h-1.758v3.218c0 .482.101.776.72.776h1.009v2.444l-3.13-.019zm8.109-9.741h-3.688v-2.544h3.688v2.544zm0 9.743h-3.688v-8.86h3.688v8.86zm7.299.237c-5.165 0-6.404-2.544-6.404-4.596v-.302c0-2.047 1.225-4.49 6.389-4.49h1.175c5.431 0 6.367 2.484 6.367 4.49v.302c0 2.047-.872 4.596-6.367 4.596h-1.16zm3.788-4.692v-.108c0-1.107-.719-2.236-3.19-2.236-2.515 0-3.213 1.118-3.213 2.236v.086c0 1.042.72 2.292 3.213 2.292 2.493 0 3.194-1.228 3.194-2.266l-.004-.004zm4.887-4.419h3.659v1.517a5.894 5.894 0 014.416-1.717h.116c3.114 0 4.322 1.753 4.322 3.471v5.611h-3.724v-4.412c0-1.367-.72-2.214-2.385-2.214a2.436 2.436 0 00-2.525 1.408 2.426 2.426 0 00-.215 1v4.196h-3.685l.021-8.86zm17.894 9.025h-.217c-2.996 0-4.135-1.386-4.135-2.874v-.116c0-1.638 1.074-2.413 3.737-2.658l4.069-.381c.419-.05.57-.187.57-.468 0-.28-.151-.718-2.319-.718h-.086c-2.197 0-2.284.718-2.334.994h-3.421c0-1.179.346-3.011 5.309-3.011h.893c5.164 0 5.496 1.588 5.496 2.875v3.406c0 .258.079.446.46.446h.526v2.407h-2.996a1.344 1.344 0 01-.974-.314 1.332 1.332 0 01-.467-.907c-.373.414-1.497 1.32-4.111 1.32zm4.026-4.39l-3.529.547c-.944.144-1.34.31-1.34.826 0 .474.373 1.006 1.619 1.006 1.974 0 3.249-1.056 3.249-2.112l.001-.267zm9.069 4.239h-3.695V26.522h3.695v12.287zM115.521 58.723c-6.484 0-7.204-2.78-7.204-4.398v-.18h4.02c.05.718.484 1.947 3.659 1.947h.231c3.238 0 3.601-.647 3.601-1.3 0-.654-.382-1.157-3.226-1.243l-2.118-.05c-4.607-.124-6.015-1.68-6.015-3.592v-.144c0-1.832 1.095-3.75 6.707-3.75h1.145c5.828 0 7.146 2.033 7.146 3.879v.165h-3.985c-.08-.46-.331-1.437-3.558-1.437h-.271c-2.976 0-3.191.532-3.191 1.063 0 .532.331.984 2.838.984h2.068c4.639.086 6.483 1.208 6.483 3.65v.23c0 2.033-1.03 4.116-7.203 4.116l-1.127.06zm9.42-.216V46.22h3.695v6.944l3.601-3.549h4.085l-4.207 4.016 4.712 4.872h-4.322l-3.868-4.08v4.083h-3.696z" fill="#fff"/><path d="M140.573 58.663h-.209c-2.997 0-4.143-1.386-4.143-2.874v-.12c0-1.63 1.081-2.407 3.747-2.658l4.069-.381c.411-.05.562-.18.562-.46s-.151-.718-2.319-.718h-.08c-2.204 0-2.284.718-2.333.994h-3.429v-.036c0-1.171.346-3.004 5.317-3.004h.908c5.164 0 5.495 1.582 5.495 2.875v3.401c0 .266.086.446.461.446h.483v2.414h-2.98a1.328 1.328 0 01-1.301-.719 1.318 1.318 0 01-.14-.502c-.37.43-1.494 1.342-4.108 1.342zm4.02-4.41l-3.522.546c-.944.15-1.348.315-1.348.826 0 .482.368 1.014 1.628 1.014 1.967 0 3.238-1.064 3.238-2.156l.004-.23zm8.39 4.253c-1.607 0-2.205-.994-2.205-2.53v-3.915h-1.736v-2.443h1.736V47.03h3.645v2.587h1.737v2.443h-1.751v3.219c0 .482.1.776.719.776h1.03v2.45h-3.175zm8.113-9.741h-3.695v-2.544h3.695v2.544zm0 9.743h-3.695V49.62h3.695v8.888zm1.497-8.897h3.653v1.523a5.9 5.9 0 014.422-1.717h.116c3.114 0 4.322 1.747 4.322 3.464v5.618h-3.724v-4.397c0-1.367-.72-2.214-2.385-2.214a2.437 2.437 0 00-1.914.59 2.416 2.416 0 00-.818 1.825V58.5h-3.687l.015-8.888zm20.162 12.097c-5.597 0-6.058-2.465-6.058-3.176v-.044h3.724c.05.216.318.819 2.882.819h.05c2.752 0 3.177-1.437 3.177-2.558a5.814 5.814 0 01-4.322 1.337h-.194c-4.171 0-5.814-1.947-5.814-4.24v-.323c0-2.155 1.39-4.132 5.346-4.132h.352c2.96 0 4.15.963 4.632 1.438V49.6h3.71v7.265c0 1.602-.8 4.844-6.26 4.844h-1.225zm.202-10.009c-2.385 0-3.048.994-3.048 1.988v.08c0 1.013.779 2.07 3.048 2.07h.093c2.334 0 3.363-1.028 3.363-2.048v-.072c0-1.056-1.045-2.013-3.363-2.013l-.093-.005zM116.476 78.38c-6.601 0-7.679-4.188-7.679-6.467v-5.962h3.875v5.747c0 1.582.72 3.55 4.07 3.55 3.35 0 4.042-1.97 4.042-3.55V65.95h3.875v5.963c0 2.313-1.253 6.467-7.563 6.467l-.62.001zm9.645-9.063h3.659v1.515a5.894 5.894 0 014.423-1.717h.115c3.114 0 4.322 1.753 4.322 3.471v5.611h-3.729v-4.39c0-1.367-.72-2.215-2.385-2.215a2.43 2.43 0 00-2.509 1.412 2.407 2.407 0 00-.212.996v4.196h-3.699l.015-8.88zm17.7-.859h-3.696v-2.544h3.696v2.544zm0 9.743h-3.696v-8.88h3.696v8.88zm.544-8.887h3.969l2.882 6.079 2.787-6.079h3.71l-4.359 8.881h-4.437l-4.552-8.88zm26.293 5.762c0 1.207-.792 3.37-6.102 3.37h-.944c-4.747 0-6.274-2.214-6.274-4.542v-.366c0-2.278 1.361-4.472 6.181-4.472h1.008c5.231 0 6.189 2.63 6.189 4.793v.61h-9.747c.217 1.043 1.11 1.732 3.141 1.732 2.45 0 2.846-.926 2.882-1.135h3.638l.028.01zm-6.641-3.944c-1.852 0-2.68.56-2.96 1.502h5.956c-.249-.942-1.109-1.502-2.975-1.502h-.021zm11.454 7.063h-3.695v-8.88h3.659v1.566a4.142 4.142 0 013.601-1.768h.187c2.579 0 3.602 1.667 3.602 3.966v.511h-3.558c0-1.143-.499-2.155-1.887-2.155a1.961 1.961 0 00-1.839 1.354 1.96 1.96 0 00-.084.801l.014 4.605zm13.618.251c-5.201 0-5.729-2.019-5.729-3.154v-.1h3.801c0 .33.125 1.207 2.284 1.207h.036c2.053 0 2.298-.416 2.298-.849 0-.46-.217-.718-1.952-.776l-1.591-.036c-3.868-.08-4.797-1.438-4.797-2.774v-.1c0-1.367.719-2.775 5.625-2.775h.662c4.502 0 5.583 1.438 5.583 2.795V72h-3.759c-.051-.33-.217-.913-2.205-.913-1.772 0-2.117.216-2.117.66 0 .396.331.662 1.868.719h1.586c4.109.086 4.97 1.013 4.97 2.795v.1c0 1.632-.965 3.054-5.878 3.054l-.685.03zm11.324-9.988h-3.688v-2.544h3.688v2.544zm0 9.743h-3.688v-8.88h3.688v8.88zm4.701-.002c-1.606 0-2.204-.994-2.204-2.522V71.76h-1.736v-2.44h1.736v-2.597h3.645v2.596h1.755v2.444h-1.751v3.219c0 .481.101.776.72.776h1.008v2.443l-3.173-.003zm5.647.45h2.082c.346 0 .432-.101.432-.287a3.127 3.127 0 00-.411-.942l-4.257-8.12h3.969l2.882 6.008 2.781-6.007h3.706l-4.667 9.477c-.843 1.667-1.672 2.508-3.278 2.508h-3.227l-.012-2.637z" fill="#fff"/><path d="M31.37 78.823C4.14 78.823 1 67.124 1 60.298v-.764h16.965c.209 3.133 2.023 8.22 15.43 8.22h.981c13.687 0 15.25-2.715 15.25-5.504 0-2.996-1.607-4.872-13.615-5.224l-8.94-.209C7.635 56.262 1.7 49.722 1.7 41.632v-.62c0-7.733 4.608-15.808 28.27-15.808h4.82c24.577 0 30.16 8.565 30.16 16.367v.718H48.06c-.352-1.954-1.397-6.2-15.012-6.2h-1.12c-12.57 0-13.478 2.226-13.478 4.454 0 2.227 1.398 4.246 12.008 4.462l8.73.137c19.555.342 27.443 5.077 27.443 15.387v.978c0 8.565-4.321 17.338-30.442 17.338l-4.82-.021z" stroke="#fff" stroke-miterlimit="10"/><path d="M25.678 59.287v13.652c0 9.75 4.538 27.441 32.416 27.441H60.6c26.602 0 31.911-17.69 31.911-27.44V47.79c-4.313 0-8.45 1.71-11.5 4.753a16.205 16.205 0 00-4.763 11.47v7.911c0 6.69-3.076 14.974-17.036 14.974-14.176 0-17.186-8.284-17.186-14.974V59.287H25.678z" fill="#fff"/><path d="M38.271 1h-8.913c-3.404 0-6.164 2.753-6.164 6.15v.994c0 3.396 2.76 6.15 6.164 6.15h8.913c3.405 0 6.165-2.754 6.165-6.15V7.15c0-3.397-2.76-6.15-6.166-6.15z" stroke="#fff" stroke-miterlimit="10"/><path d="M41.95 42.554V17.276c0-.125-.209-.166-.281-.05a2.663 2.663 0 01-2.254 1.084H28.206a2.657 2.657 0 01-2.241-1.084c-.073-.108-.282-.072-.282.05v25.278H41.95z" fill="#fff"/><path d="M84.795 41.381a7.201 7.201 0 002.882 2.285m3.764-24.292v.044c.274 12.932-.498 19.07-.921 21.433a7.032 7.032 0 000 2.199l-.65-.194v.54l-.633-.087v.633l-.72-.194-.173.834-.72-.82" stroke="#fff" stroke-width=".75" stroke-linecap="round" stroke-linejoin="round"/><path d="M91.449 19.546l-.382-18.532s-2.35-.295-2.406 1.933c-.058 2.227.72 4.922-3.221 4.807" stroke="#fff" stroke-width=".75" stroke-linecap="round" stroke-linejoin="round"/><path d="M85.912 10.36a2.59 2.59 0 012.834 1.44c.161.345.244.722.242 1.103.194 3.011 0 13.565 0 13.565a2.612 2.612 0 01-.81 1.71c-.474.45-1.1.706-1.754.719m-.619 9.487c.46.632 1.822 2.292 2.413.718.445-1.826.581-3.713.404-5.583 0 0-.483-1.768-2.075-1.863m-8.215-26.64A60.72 60.72 0 0081.3 16.445c.399 1.106.838 2.27 1.318 3.492 5.438 13.587.18 23.18.18 23.18" stroke="#fff" stroke-width=".75" stroke-linecap="round" stroke-linejoin="round"/><path d="M84.917 41.597c-.17.395-.36.782-.57 1.157a.719.719 0 01-.622.367h-.828s-5.043 2.428-5.762-3.435a11.317 11.317 0 00-.202-1.185 19.1 19.1 0 00-1.698-4.58 20.652 20.652 0 00-5.202-6.645 20.712 20.712 0 00-7.432-4.015 18.052 18.052 0 00-2.233-.497 14.843 14.843 0 00-2.882-.15c-1.188.05-3.687-.249-3.053-3.75.1-.553.209-1.108.317-1.64.764-3.844 1.657-7.04 2.687-8.622a3.51 3.51 0 013.06-1.118 26.94 26.94 0 006.707-.718l.324-.079c1.578-.367 3.1-.938 4.53-1.698 2.882-1.688 6.368 0 6.368 0l6.828.072.374 2.666.374 2.608.287 2.048a9.279 9.279 0 01-3.824 1.94 47.408 47.408 0 014.048 14.55c.101 1.035.145 2.005.159 2.924.042 2.266-.2 4.528-.72 6.734a19.647 19.647 0 01-1.038 3.068M67.48 6.712s2.803 10.893 13.867 9.735m-26.587.671s26.344 1.474 22.194 21.283" stroke="#fff" stroke-width=".75" stroke-linecap="round" stroke-linejoin="round"/><path d="M56.847 20.937a.956.956 0 10-.957-.956c0 .528.428.956.957.956zm3.763.528a.957.957 0 10-.958-.956c0 .528.429.956.958.956zm3.84 1.037a.957.957 0 10-.957-.955c0 .527.428.955.957.955zm3.849 1.693a.956.956 0 10-.958-.955c0 .527.429.955.958.955zm3.26 2.452a.957.957 0 10-.958-.955c0 .528.43.955.958.955zm2.709 3.202a.956.956 0 100-1.911.956.956 0 100 1.91z" stroke="#fff" stroke-width=".75" stroke-linecap="round" stroke-linejoin="round"/></svg>