<svg width="247" height="100" fill="none" xmlns="http://www.w3.org/2000/svg"><g clip-path="url(#clip0_72_990)"><path d="M112.454 38.43h-3.855V26.143h3.855V38.43zm1.668-8.874h3.653v1.517a5.892 5.892 0 014.422-1.716h.116c3.114 0 4.322 1.752 4.322 3.47v5.611h-3.724v-4.413c0-1.367-.72-2.214-2.385-2.214a2.429 2.429 0 00-2.517 1.41 2.403 2.403 0 00-.213.998v4.196h-3.695l.021-8.858zm17.142 8.873c-1.607 0-2.205-.994-2.205-2.53v-3.911h-1.731v-2.423h1.736V26.95h3.646v2.615h1.751v2.444h-1.751v3.218c0 .482.101.777.719.777h1.009v2.443l-3.174-.018zm17.228-3.125c0 1.208-.792 3.37-6.102 3.37h-.95c-4.755 0-6.274-2.213-6.274-4.541v-.367c0-2.278 1.353-4.472 6.173-4.472h1.009c5.23 0 6.194 2.63 6.194 4.793v.611h-9.746c.216 1.042 1.109 1.732 3.148 1.732 2.45 0 2.846-.927 2.882-1.143h3.645l.021.017zm-6.675-3.939c-1.858 0-2.68.56-2.968 1.502h5.964c-.249-.941-1.109-1.502-2.982-1.502h-.014zm11.473 7.051h-3.699v-8.86h3.659v1.567a4.142 4.142 0 013.601-1.768h.181c2.587 0 3.602 1.667 3.602 3.967v.51h-3.558c0-1.143-.499-2.155-1.887-2.155a1.962 1.962 0 00-1.833 1.356c-.083.258-.112.53-.084.8l.018 4.583zm8.396-8.859h3.659v1.516a5.897 5.897 0 014.416-1.717h.124c3.114 0 4.322 1.753 4.322 3.471v5.612h-3.724v-4.413c0-1.366-.72-2.214-2.385-2.214a2.435 2.435 0 00-2.525 1.408 2.426 2.426 0 00-.215 1v4.196h-3.687l.015-8.86zm17.818 9.024h-.216c-2.997 0-4.135-1.386-4.135-2.874v-.116c0-1.638 1.074-2.413 3.736-2.658l4.07-.381c.417-.05.562-.187.562-.468 0-.28-.145-.718-2.313-.718h-.086c-2.161 0-2.284.718-2.334.994h-3.421c0-1.179.346-3.01 5.309-3.01h.916c5.164 0 5.496 1.587 5.496 2.874v3.406c0 .258.079.446.46.446h.483v2.407h-2.996a1.342 1.342 0 01-1.441-1.22c-.351.413-1.476 1.318-4.09 1.318zm4.02-4.39l-3.521.547c-.944.144-1.34.31-1.34.826 0 .475.359 1.006 1.619 1.006 1.973 0 3.238-1.056 3.238-2.112l.004-.267zm8.403 4.238c-1.606 0-2.204-.994-2.204-2.53v-3.911h-1.736v-2.423h1.736V26.95h3.602v2.615h1.76v2.444h-1.757v3.218c0 .482.101.777.72.777h1.009v2.443l-3.13-.018zm8.109-9.742h-3.688v-2.544h3.688v2.544zm0 9.743h-3.688v-8.86h3.688v8.86zm7.299.237c-5.165 0-6.404-2.544-6.404-4.596v-.302c0-2.047 1.224-4.49 6.389-4.49h1.174c5.431 0 6.368 2.484 6.368 4.49v.302c0 2.047-.872 4.596-6.368 4.596h-1.159zm3.788-4.692v-.108c0-1.107-.72-2.236-3.19-2.236-2.515 0-3.213 1.118-3.213 2.236v.086c0 1.042.719 2.292 3.213 2.292 2.493 0 3.194-1.227 3.194-2.266l-.004-.004zm4.887-4.418h3.659v1.516a5.894 5.894 0 014.416-1.716h.116c3.113 0 4.321 1.752 4.321 3.47v5.612h-3.723v-4.413c0-1.366-.72-2.214-2.385-2.214a2.435 2.435 0 00-2.525 1.408 2.426 2.426 0 00-.215 1v4.196h-3.685l.021-8.86zm17.894 9.024h-.217c-2.996 0-4.135-1.386-4.135-2.874v-.116c0-1.638 1.074-2.413 3.736-2.658l4.07-.381c.419-.05.569-.187.569-.468 0-.28-.15-.718-2.318-.718h-.086c-2.197 0-2.284.718-2.334.994h-3.421c0-1.179.346-3.01 5.309-3.01h.893c5.164 0 5.496 1.587 5.496 2.874v3.406c0 .258.079.446.46.446h.526v2.407h-2.997a1.342 1.342 0 01-1.44-1.22c-.373.413-1.497 1.318-4.111 1.318zm4.026-4.39l-3.53.547c-.943.144-1.34.31-1.34.826 0 .475.374 1.006 1.619 1.006 1.974 0 3.25-1.056 3.25-2.112l.001-.267zm9.069 4.239h-3.695V26.143h3.695V38.43zM115.143 58.344c-6.483 0-7.203-2.78-7.203-4.397v-.18h4.02c.05.717.483 1.946 3.659 1.946h.231c3.238 0 3.601-.647 3.601-1.3 0-.654-.382-1.157-3.227-1.243l-2.117-.05c-4.608-.124-6.015-1.68-6.015-3.592v-.144c0-1.832 1.095-3.75 6.706-3.75h1.146c5.827 0 7.146 2.033 7.146 3.879v.165h-3.985c-.08-.46-.331-1.437-3.558-1.437h-.272c-2.975 0-3.19.532-3.19 1.063 0 .532.331.984 2.838.984h2.067c4.639.086 6.484 1.208 6.484 3.65v.23c0 2.033-1.03 4.117-7.204 4.117l-1.127.06zm9.42-.216V45.842h3.695v6.944l3.602-3.549h4.085l-4.207 4.017 4.711 4.872h-4.321l-3.868-4.081v4.083h-3.697z" fill="#3400D6"/><path d="M140.196 58.285h-.21c-2.996 0-4.142-1.387-4.142-2.875v-.12c0-1.63 1.081-2.407 3.746-2.658l4.07-.381c.411-.05.562-.18.562-.46s-.151-.718-2.319-.718h-.08c-2.204 0-2.284.718-2.334.994h-3.428v-.036c0-1.171.346-3.004 5.316-3.004h.908c5.165 0 5.496 1.582 5.496 2.875v3.401c0 .266.086.446.461.446h.483v2.414h-2.98a1.33 1.33 0 01-1.301-.719 1.318 1.318 0 01-.14-.502c-.37.43-1.494 1.343-4.108 1.343zm4.02-4.412l-3.522.547c-.944.15-1.348.315-1.348.826 0 .482.368 1.014 1.628 1.014 1.966 0 3.238-1.064 3.238-2.156l.004-.23zm8.389 4.254c-1.606 0-2.204-.994-2.204-2.53v-3.915h-1.736v-2.443h1.736v-2.587h3.645v2.587h1.736v2.443h-1.751v3.219c0 .482.101.776.72.776h1.03v2.45h-3.176zm8.114-9.741h-3.695v-2.544h3.695v2.544zm0 9.743h-3.695v-8.888h3.695v8.888zm1.497-8.897h3.653v1.523a5.892 5.892 0 014.422-1.717h.116c3.113 0 4.321 1.747 4.321 3.464v5.618h-3.723v-4.397c0-1.367-.72-2.214-2.385-2.214a2.436 2.436 0 00-2.521 1.415 2.427 2.427 0 00-.212 1v4.197h-3.686l.015-8.889zm20.162 12.098c-5.597 0-6.058-2.465-6.058-3.177v-.044h3.724c.05.216.317.819 2.882.819h.049c2.753 0 3.177-1.437 3.177-2.558a5.81 5.81 0 01-4.321 1.337h-.194c-4.171 0-5.814-1.947-5.814-4.24v-.323c0-2.155 1.39-4.131 5.345-4.131h.353c2.96 0 4.149.962 4.631 1.437v-1.23h3.71v7.265c0 1.602-.799 4.845-6.259 4.845l-1.225-.002zm.201-10.01c-2.385 0-3.047.994-3.047 1.988v.08c0 1.013.778 2.07 3.047 2.07h.094c2.334 0 3.362-1.028 3.362-2.048v-.072c0-1.056-1.045-2.013-3.362-2.013l-.094-.005zm-66.48 26.681c-6.601 0-7.679-4.189-7.679-6.467v-5.963h3.875v5.748c0 1.582.72 3.55 4.07 3.55 3.35 0 4.041-1.97 4.041-3.55V65.57h3.876v5.963c0 2.313-1.253 6.467-7.563 6.467l-.62.001zm9.645-9.063h3.659v1.515a5.9 5.9 0 014.422-1.716h.116c3.114 0 4.322 1.752 4.322 3.47v5.612h-3.729v-4.392c0-1.366-.72-2.213-2.385-2.213a2.43 2.43 0 00-2.509 1.411 2.408 2.408 0 00-.212.996v4.196h-3.699l.015-8.88zm17.699-.858h-3.695v-2.545h3.695v2.544zm0 9.742h-3.695v-8.88h3.695v8.88zm.545-8.887h3.969l2.881 6.079 2.787-6.079h3.71l-4.358 8.881h-4.438l-4.551-8.88zm26.293 5.762c0 1.207-.792 3.37-6.102 3.37h-.944c-4.747 0-6.274-2.213-6.274-4.541v-.367c0-2.278 1.361-4.472 6.18-4.472h1.009c5.231 0 6.188 2.63 6.188 4.793v.61h-9.746c.217 1.043 1.11 1.732 3.141 1.732 2.45 0 2.846-.926 2.882-1.135h3.638l.028.01zm-6.641-3.944c-1.852 0-2.68.56-2.961 1.502h5.957c-.249-.942-1.11-1.502-2.975-1.502h-.021zm11.453 7.063h-3.695v-8.88h3.659v1.566a4.153 4.153 0 013.602-1.768h.187c2.579 0 3.601 1.667 3.601 3.967v.51h-3.558c0-1.143-.498-2.155-1.886-2.155a1.961 1.961 0 00-1.839 1.354 1.94 1.94 0 00-.084.801l.013 4.605zm13.619.251c-5.201 0-5.729-2.018-5.729-3.154v-.1h3.801c0 .33.124 1.207 2.284 1.207h.036c2.052 0 2.298-.416 2.298-.849 0-.46-.217-.718-1.952-.776l-1.591-.036c-3.869-.08-4.798-1.437-4.798-2.774v-.1c0-1.367.72-2.774 5.626-2.774h.662c4.502 0 5.583 1.437 5.583 2.795v.115h-3.76c-.051-.33-.216-.913-2.204-.913-1.772 0-2.117.216-2.117.661 0 .395.331.66 1.868.718h1.585c4.11.086 4.971 1.014 4.971 2.795v.1c0 1.632-.965 3.054-5.878 3.054l-.685.031zm11.324-9.987h-3.688v-2.545h3.688v2.544zm0 9.742h-3.688v-8.88h3.688v8.88zm4.701-.002c-1.607 0-2.204-.994-2.204-2.522v-3.915h-1.736v-2.441h1.736v-2.597h3.645v2.597h1.755v2.443h-1.751v3.219c0 .482.1.776.719.776h1.009v2.444l-3.173-.004zm5.646.45h2.083c.346 0 .432-.101.432-.287a3.127 3.127 0 00-.411-.942l-4.257-8.12h3.969l2.882 6.008 2.781-6.007h3.706l-4.667 9.477c-.844 1.667-1.672 2.508-3.278 2.508h-3.227l-.013-2.637z" fill="#3400D6"/><path d="M30.992 78.444C3.764 78.444.622 66.745.622 59.919v-.764h16.965c.21 3.133 2.024 8.22 15.43 8.22H34c13.686 0 15.25-2.715 15.25-5.504 0-2.997-1.607-4.872-13.615-5.224l-8.94-.209C7.258 55.883 1.322 49.343 1.322 41.252v-.62c0-7.733 4.608-15.808 28.27-15.808h4.82c24.578 0 30.16 8.565 30.16 16.367v.718H47.683c-.352-1.954-1.397-6.2-15.012-6.2h-1.12c-12.57 0-13.478 2.226-13.478 4.454 0 2.227 1.397 4.246 12.008 4.462l8.73.136c19.555.343 27.443 5.078 27.443 15.388v.978c0 8.565-4.321 17.338-30.442 17.338l-4.82-.022z" stroke="#3400D6" stroke-miterlimit="10"/><path d="M25.301 58.908V72.56c0 9.75 4.538 27.441 32.416 27.441h2.504c26.603 0 31.912-17.69 31.912-27.44V47.41c-4.313 0-8.45 1.71-11.5 4.753a16.205 16.205 0 00-4.764 11.47v7.911c0 6.69-3.076 14.974-17.035 14.974-14.176 0-17.186-8.284-17.186-14.974V58.908H25.3z" fill="#3400D6"/><path d="M37.894.621h-8.913c-3.405 0-6.165 2.753-6.165 6.15v.994c0 3.396 2.76 6.15 6.165 6.15h8.913c3.405 0 6.165-2.754 6.165-6.15V6.77c0-3.396-2.76-6.149-6.165-6.149z" stroke="#3400D6" stroke-miterlimit="10"/><path d="M41.573 42.175V16.897c0-.124-.21-.165-.282-.05a2.663 2.663 0 01-2.254 1.085H27.83a2.657 2.657 0 01-2.242-1.085c-.072-.108-.281-.072-.281.05v25.278h16.267z" fill="#3400D6"/><path d="M84.418 41.002a7.201 7.201 0 002.881 2.285m3.765-24.292v.043c.274 12.933-.498 19.07-.921 21.434a7.032 7.032 0 000 2.199l-.65-.194v.54l-.633-.087v.633l-.72-.194-.173.833-.72-.818" stroke="#3400D6" stroke-width=".75" stroke-linecap="round" stroke-linejoin="round"/><path d="M91.072 19.166L90.689.636S88.341.34 88.283 2.568c-.057 2.227.72 4.921-3.22 4.807" stroke="#3400D6" stroke-width=".75" stroke-linecap="round" stroke-linejoin="round"/><path d="M85.535 9.98a2.591 2.591 0 012.141.546 2.578 2.578 0 01.935 1.998c.194 3.011 0 13.565 0 13.565a2.612 2.612 0 01-.81 1.71c-.475.45-1.1.706-1.755.719m-.618 9.487c.46.632 1.822 2.292 2.413.718.445-1.826.581-3.712.404-5.583 0 0-.483-1.767-2.075-1.863m-8.215-26.64a60.713 60.713 0 002.968 11.429c.399 1.106.838 2.27 1.318 3.492 5.438 13.587.18 23.18.18 23.18" stroke="#3400D6" stroke-width=".75" stroke-linecap="round" stroke-linejoin="round"/><path d="M84.54 41.219c-.17.395-.36.78-.57 1.156a.718.718 0 01-.622.367h-.828s-5.043 2.428-5.763-3.435a11.317 11.317 0 00-.201-1.185 19.1 19.1 0 00-1.698-4.58 20.652 20.652 0 00-5.202-6.645 20.71 20.71 0 00-7.432-4.015 18.034 18.034 0 00-2.233-.497 14.843 14.843 0 00-2.882-.15c-1.188.05-3.687-.249-3.053-3.75.1-.553.209-1.107.317-1.639.764-3.845 1.656-7.041 2.686-8.622a3.51 3.51 0 013.061-1.118c2.257.042 4.51-.2 6.707-.718l.324-.08c1.577-.367 3.1-.938 4.53-1.698 2.882-1.688 6.368 0 6.368 0l6.828.072.374 2.666.373 2.609.288 2.047a9.28 9.28 0 01-3.824 1.94 47.408 47.408 0 014.048 14.55c.101 1.035.145 2.005.159 2.925.041 2.265-.2 4.527-.72 6.732a19.634 19.634 0 01-1.038 3.069M67.103 6.333s2.802 10.893 13.866 9.735m-26.586.672s26.343 1.472 22.194 21.282" stroke="#3400D6" stroke-width=".75" stroke-linecap="round" stroke-linejoin="round"/><path d="M56.47 20.558a.956.956 0 10-.957-.956c0 .528.428.956.957.956zm3.763.528a.956.956 0 10-.958-.955c0 .527.429.955.958.955zm3.84 1.037a.957.957 0 10-.957-.955c0 .527.428.955.957.955zm3.849 1.693a.957.957 0 10-.958-.955c0 .527.429.955.958.955zm3.26 2.452a.956.956 0 100-1.91.956.956 0 100 1.91zm2.708 3.202a.956.956 0 10-.957-.956c0 .528.429.956.958.956z" stroke="#3400D6" stroke-width=".75" stroke-linecap="round" stroke-linejoin="round"/></g><defs><clipPath id="clip0_72_990"><path fill="#fff" d="M0 0h247v100H0z"/></clipPath></defs></svg>