<svg width="66" height="50" fill="none" xmlns="http://www.w3.org/2000/svg"><path d="M8.25 6.25c-1.134 0-2.063.938-2.063 2.083v2.878l22.237 18.437a7.155 7.155 0 009.165 0l22.224-18.437V8.333c0-1.146-.929-2.083-2.063-2.083H8.25zM6.187 19.297v22.37c0 1.145.929 2.083 2.063 2.083h49.5c1.134 0 2.063-.938 2.063-2.083v-22.37L41.508 34.479a13.303 13.303 0 01-17.016 0L6.187 19.297zM0 8.333C0 3.737 3.7 0 8.25 0h49.5C62.3 0 66 3.737 66 8.333v33.334C66 46.263 62.3 50 57.75 50H8.25C3.7 50 0 46.263 0 41.667V8.333z" fill="url(#paint0_linear_72_904)"/><defs><linearGradient id="paint0_linear_72_904" x1="8.5" y1="66.848" x2="67.608" y2="-11.131" gradientUnits="userSpaceOnUse"><stop offset=".17" stop-color="#F336A6" stop-opacity=".9"/><stop offset=".774" stop-color="#8F7FF1"/></linearGradient></defs></svg>