<svg width="50" height="50" fill="none" xmlns="http://www.w3.org/2000/svg"><g filter="url(#filter0_d_71_1210)" clip-path="url(#clip0_71_1210)"><path d="M18.825 28.745L16.5 11.77l-2.325 16.973H6.083C4.933 28.743 4 27.9 4 26.861c.007-.506.23-.989.62-1.342.39-.354.917-.55 1.463-.545h4.409l1.875-13.667c.279-2.067 2.362-3.533 4.643-3.278 1.896.212 3.388 1.562 3.623 3.278l1.873 13.667h4.113L29 38.95l2.38-13.974h12.203c1.15 0 2.084.845 2.084 1.887 0 1.041-.934 1.884-2.084 1.884h-8.629L33.12 39.523a3.73 3.73 0 01-1.185 2.103 4.256 4.256 0 01-2.299 1.048c-2.275.318-4.402-1.093-4.754-3.151l-1.833-10.776h-4.225l.002-.002z" fill="url(#paint0_linear_71_1210)"/></g><defs><linearGradient id="paint0_linear_71_1210" x1="-13.167" y1="13.337" x2="57.836" y2="52.988" gradientUnits="userSpaceOnUse"><stop stop-color="#8500EB"/><stop offset="1" stop-color="#FF0198"/></linearGradient><clipPath id="clip0_71_1210"><path fill="#fff" d="M0 0h50v50H0z"/></clipPath><filter id="filter0_d_71_1210" x="-4" y="2" width="61.667" height="54.719" filterUnits="userSpaceOnUse" color-interpolation-filters="sRGB"><feFlood flood-opacity="0" result="BackgroundImageFix"/><feColorMatrix in="SourceAlpha" values="0 0 0 0 0 0 0 0 0 0 0 0 0 0 0 0 0 0 127 0" result="hardAlpha"/><feOffset dx="2" dy="4"/><feGaussianBlur stdDeviation="5"/><feComposite in2="hardAlpha" operator="out"/><feColorMatrix values="0 0 0 0 0 0 0 0 0 0 0 0 0 0 0 0 0 0 0.3 0"/><feBlend in2="BackgroundImageFix" result="effect1_dropShadow_71_1210"/><feBlend in="SourceGraphic" in2="effect1_dropShadow_71_1210" result="shape"/></filter></defs></svg>