<svg width="50" height="50" fill="none" xmlns="http://www.w3.org/2000/svg"><path d="M25 0C11.193 0 0 11.193 0 25s11.193 25 25 25 25-11.193 25-25S38.807 0 25 0zm11.588 17.002c-.376 3.953-2.004 13.546-2.833 17.974-.35 1.873-1.04 2.501-1.708 2.563-1.452.133-2.554-.96-3.96-1.881-2.2-1.443-3.444-2.34-5.58-3.748-2.468-1.627-.868-2.52.539-3.982.368-.382 6.765-6.2 6.888-6.728.016-.066.03-.313-.116-.442-.147-.13-.362-.086-.518-.05-.22.05-3.735 2.373-10.545 6.97-.997.684-1.901 1.018-2.71 1-.894-.018-2.61-.504-3.887-.919-1.566-.509-2.81-.778-2.702-1.642.057-.45.677-.91 1.86-1.381 7.288-3.175 12.148-5.269 14.58-6.28 6.942-2.888 8.385-3.39 9.325-3.407.207-.003.67.048.969.291.2.173.326.415.356.677.05.326.065.656.042.985z" fill="url(#paint0_linear_71_1333)"/><defs><linearGradient id="paint0_linear_71_1333" x1="6.439" y1="66.848" x2="67.831" y2="5.491" gradientUnits="userSpaceOnUse"><stop offset=".17" stop-color="#F336A6" stop-opacity=".9"/><stop offset=".774" stop-color="#8F7FF1"/></linearGradient></defs></svg>