<svg width="50" height="50" fill="none" xmlns="http://www.w3.org/2000/svg"><path d="M50 20.504c-4.915.01-9.71-1.33-13.706-3.834v17.458c-.001 3.233-1.13 6.389-3.237 9.045-2.107 2.657-5.09 4.688-8.552 5.82a20.608 20.608 0 01-10.817.52c-3.582-.794-6.801-2.526-9.228-4.965C2.034 42.109.516 39.08.11 35.867c-.406-3.214.319-6.46 2.078-9.303 1.759-2.843 4.468-5.15 7.765-6.61 3.297-1.46 7.025-2.004 10.686-1.56v8.78a9.466 9.466 0 00-5.14.04c-1.665.487-3.112 1.422-4.134 2.671-1.022 1.25-1.567 2.75-1.556 4.286.01 1.536.575 3.03 1.614 4.27 1.039 1.238 2.498 2.157 4.17 2.627 1.672.47 3.47.465 5.14-.013 1.668-.478 3.121-1.406 4.152-2.65 1.03-1.244 1.585-2.74 1.585-4.277V0h9.824c-.007.726.063 1.45.208 2.166a11.159 11.159 0 002.086 4.46c1.035 1.348 2.373 2.496 3.932 3.376 2.219 1.283 4.82 1.967 7.48 1.967v8.535z" fill="url(#paint0_linear_71_1344)"/><defs><linearGradient id="paint0_linear_71_1344" x1="6.439" y1="66.848" x2="67.831" y2="5.491" gradientUnits="userSpaceOnUse"><stop offset=".17" stop-color="#F336A6" stop-opacity=".9"/><stop offset=".774" stop-color="#8F7FF1"/></linearGradient></defs></svg>