<svg width="50" height="50" fill="none" xmlns="http://www.w3.org/2000/svg"><path d="M42.511 7.266C37.835 2.578 31.607 0 24.99 0 11.329 0 .212 11.116.212 24.777c0 4.364 1.138 8.627 3.304 12.388L0 50l13.136-3.449a24.7 24.7 0 0011.842 3.014h.01C38.639 49.565 50 38.449 50 24.788c0-6.618-2.813-12.835-7.489-17.522zM24.99 45.39c-3.706 0-7.333-.994-10.491-2.869l-.748-.446-7.79 2.042 2.076-7.6-.491-.781a20.525 20.525 0 01-3.148-10.96c0-11.35 9.241-20.592 20.603-20.592 5.502 0 10.67 2.143 14.554 6.038 3.883 3.895 6.272 9.063 6.26 14.565 0 11.362-9.475 20.603-20.825 20.603zm11.294-15.424c-.613-.313-3.66-1.808-4.23-2.01-.569-.212-.982-.312-1.394.313-.413.625-1.596 2.009-1.965 2.433-.357.413-.725.469-1.34.156-3.637-1.819-6.026-3.247-8.425-7.366-.637-1.093.636-1.015 1.819-3.381.2-.413.1-.77-.056-1.083-.156-.313-1.395-3.36-1.909-4.598-.502-1.206-1.015-1.038-1.395-1.06-.357-.023-.77-.023-1.183-.023-.413 0-1.082.156-1.651.77-.57.625-2.166 2.12-2.166 5.168 0 3.047 2.221 5.993 2.523 6.406.312.413 4.364 6.663 10.58 9.353 3.929 1.696 5.469 1.841 7.433 1.551 1.194-.179 3.66-1.496 4.174-2.946.514-1.451.514-2.69.357-2.947-.145-.279-.558-.435-1.172-.736z" fill="url(#paint0_linear_71_1331)"/><defs><linearGradient id="paint0_linear_71_1331" x1="6.439" y1="66.848" x2="67.831" y2="5.491" gradientUnits="userSpaceOnUse"><stop offset=".17" stop-color="#F336A6" stop-opacity=".9"/><stop offset=".774" stop-color="#8F7FF1"/></linearGradient></defs></svg>