<svg width="72" height="50" fill="none" xmlns="http://www.w3.org/2000/svg"><path d="M70.496 7.823a8.99 8.99 0 00-6.366-6.327C58.515 0 36 0 36 0S13.485 0 7.87 1.496a8.991 8.991 0 00-6.365 6.327C0 13.405 0 25.05 0 25.05s0 11.646 1.505 17.228c.828 3.08 3.267 5.403 6.365 6.226C13.485 50 36 50 36 50s22.515 0 28.13-1.496c3.098-.823 5.537-3.147 6.366-6.226C72 36.696 72 25.05 72 25.05s0-11.646-1.504-17.228zm-41.86 27.8V14.478l18.818 10.574-18.818 10.573z" fill="url(#paint0_linear_49_608)"/><defs><linearGradient id="paint0_linear_49_608" x1="9.273" y1="66.848" x2="66.809" y2="-15.957" gradientUnits="userSpaceOnUse"><stop offset=".17" stop-color="#F336A6" stop-opacity=".9"/><stop offset=".774" stop-color="#8F7FF1"/></linearGradient></defs></svg>